<?xml version="1.0" encoding="UTF-8"?>
<svg width="48px" height="48px" viewBox="0 0 48 48" version="1.1" xmlns="http://www.w3.org/2000/svg" xmlns:xlink="http://www.w3.org/1999/xlink">
    <!-- Generator: Sketch 41.2 (35397) - http://www.bohemiancoding.com/sketch -->
    <title>Button-search</title>
    <desc>Created with Sketch.</desc>
    <defs></defs>
    <g id="Buttons" stroke="none" stroke-width="1" fill="none" fill-rule="evenodd">
        <g id="Button-search">
            <g id="Button/search">
                <rect id="Container" x="0" y="0" width="48" height="48" rx="4"></rect>
                <g id="magnifier" stroke-width="1" fill-rule="evenodd" transform="translate(14.000000, 14.000000)" fill-opacity="0.38" fill="#000000">
                    <path d="M8.498,15 C10.27425,15 11.9059167,14.37625 13.1921667,13.3404167 L19.5738333,19.7545833 C19.73675,19.9183333 19.9505,20 20.1646667,20 C20.3771667,20 20.5900833,19.9191667 20.7525833,19.7575 C21.0788333,19.4329167 21.0800833,18.905 20.7555,18.57875 L14.3659167,12.1570833 C15.3846667,10.87625 15.998,9.25958333 15.998,7.5 C15.998,3.36458333 12.6334167,0 8.498,0 C4.36258333,0 0.998,3.36458333 0.998,7.5 C0.998,11.6354167 4.36258333,15 8.498,15 L8.498,15 Z M8.498,1.66666667 C11.7146667,1.66666667 14.3313333,4.28333333 14.3313333,7.5 C14.3313333,10.7166667 11.7146667,13.3333333 8.498,13.3333333 C5.28133333,13.3333333 2.66466667,10.7166667 2.66466667,7.5 C2.66466667,4.28333333 5.28133333,1.66666667 8.498,1.66666667 L8.498,1.66666667 Z" id="Shape"></path>
                </g>
            </g>
        </g>
    </g>
</svg>