<svg xmlns="http://www.w3.org/2000/svg" width="48" height="48" viewBox="0 0 48 48">
  <path fill="#FFF" fill-rule="evenodd" d="M0,5.0010033 C0,2.23902544 2.23479023,0 5.0010033,0 L42.9989967,0 C45.7609746,0 48,2.23479023 48,5.0010033 L48,42.9989967 C48,45.7609746 45.7652098,48 42.9989967,48 L5.0010033,48 C2.23902544,48 0,45.7652098 0,42.9989967 L0,5.0010033 Z M12,12 L12,22 L22,22 L22,12 L12,12 Z M26,12 L26,22 L36,22 L36,12 L26,12 Z M12,26 L12,36 L22,36 L22,26 L12,26 Z M26,26 L26,36 L36,36 L36,26 L26,26 Z"/>
</svg>
