<svg xmlns="http://www.w3.org/2000/svg" width="48" height="48" viewBox="0 0 48 48">
  <g fill="none" fill-rule="evenodd">
    <rect width="46" height="46" x="1" y="1" stroke="#FFF" stroke-opacity=".5" stroke-width="2" rx="5"/>
    <g fill="#FFF" fill-opacity=".5" transform="translate(12 12)">
      <path d="M3,6 C4.656,6 6,4.656 6,3 C6,1.344 4.656,0 3,0 C1.344,0 0,1.344 0,3 C0,4.656 1.344,6 3,6 L3,6 Z"/>
      <rect width="15" height="2" x="9" y="3"/>
      <g transform="translate(0 9)">
        <path d="M3,6 C4.656,6 6,4.656 6,3 C6,1.344 4.656,0 3,0 C1.344,0 0,1.344 0,3 C0,4.656 1.344,6 3,6 L3,6 Z"/>
        <rect width="15" height="2" x="9" y="2"/>
      </g>
      <g transform="translate(0 18)">
        <path d="M3,6 C4.656,6 6,4.656 6,3 C6,1.344 4.656,0 3,0 C1.344,0 0,1.344 0,3 C0,4.656 1.344,6 3,6 L3,6 Z"/>
        <rect width="15" height="2" x="9" y="2"/>
      </g>
    </g>
  </g>
</svg>
