<svg xmlns="http://www.w3.org/2000/svg" width="48" height="48" viewBox="0 0 48 48">
  <g fill="none" fill-rule="evenodd">
    <rect width="48" height="48" rx="4"/>
    <path fill="#8F8E94" d="M31,24 C31,27.866 27.866,31 24,31 C20.134,31 17,27.866 17,24 C17,20.13403 20.134,17 24,17 C27.866,17 31,20.13403 31,24 L31,24 Z M22.03033,20.96973 C21.73743,20.67676 21.26257,20.67676 20.96967,20.96973 C20.67679,21.26245 20.67679,21.73755 20.96967,22.03027 L22.93933,24 L20.96967,25.96973 C20.67679,26.26245 20.67679,26.73755 20.96967,27.0303 C21.26257,27.3232 21.73743,27.3232 22.03033,27.0303 L24,25.06055 L25.96967,27.0303 C26.26257,27.3232 26.73743,27.3232 27.0303,27.0303 C27.3232,26.73755 27.3232,26.26245 27.0303,25.96973 L25.06067,24 L27.0303,22.03027 C27.3232,21.73755 27.3232,21.26245 27.0303,20.96973 C26.73743,20.67676 26.26257,20.67676 25.96967,20.96973 L24,22.93945 L22.03033,20.96973 L22.03033,20.96973 Z"/>
  </g>
</svg>
