<?xml version="1.0" encoding="UTF-8"?>
<svg width="48px" height="48px" viewBox="0 0 48 48" version="1.1" xmlns="http://www.w3.org/2000/svg" xmlns:xlink="http://www.w3.org/1999/xlink">
    <!-- Generator: Sketch 41.2 (35397) - http://www.bohemiancoding.com/sketch -->
    <title>ButtonWhite-viewList-selected_false</title>
    <desc>Created with Sketch.</desc>
    <defs>
        <rect id="path-1" x="0" y="0" width="48" height="48" rx="5"></rect>
        <mask id="mask-2" maskContentUnits="userSpaceOnUse" maskUnits="objectBoundingBox" x="0" y="0" width="48" height="48" fill="white">
            <use xlink:href="#path-1"></use>
        </mask>
    </defs>
    <g id="Buttons-and-tabs" stroke="none" stroke-width="1" fill="none" fill-rule="evenodd">
        <g id="ButtonWhite-viewList-selected_false">
            <g id="ButtonWhite/view/list/selected/false">
                <g id="List-view-deselected">
                    <use id="Container" stroke-opacity="0.5" stroke="#FFFFFF" mask="url(#mask-2)" stroke-width="4" xlink:href="#path-1"></use>
                    <g id="Graphics" transform="translate(12.000000, 12.000000)" fill-opacity="0.5" fill="#FFFFFF">
                        <g id="Top-line">
                            <path d="M3,6 C4.656,6 6,4.656 6,3 C6,1.344 4.656,0 3,0 C1.344,0 0,1.344 0,3 C0,4.656 1.344,6 3,6 L3,6 Z" id="Shape"></path>
                            <rect id="Rectangle-2" x="9" y="3" width="15" height="2"></rect>
                        </g>
                        <g id="Middle-line" transform="translate(0.000000, 9.000000)">
                            <path d="M3,6 C4.656,6 6,4.656 6,3 C6,1.344 4.656,0 3,0 C1.344,0 0,1.344 0,3 C0,4.656 1.344,6 3,6 L3,6 Z" id="Shape"></path>
                            <rect id="Rectangle-2" x="9" y="2" width="15" height="2"></rect>
                        </g>
                        <g id="Bottom-row" transform="translate(0.000000, 18.000000)">
                            <path d="M3,6 C4.656,6 6,4.656 6,3 C6,1.344 4.656,0 3,0 C1.344,0 0,1.344 0,3 C0,4.656 1.344,6 3,6 L3,6 Z" id="Shape"></path>
                            <rect id="Rectangle-2" x="9" y="2" width="15" height="2"></rect>
                        </g>
                    </g>
                </g>
            </g>
        </g>
    </g>
</svg>