<svg xmlns="http://www.w3.org/2000/svg" width="48" height="48" viewBox="0 0 48 48">
  <path fill="#FFF" fill-rule="evenodd" d="M0,5.0010033 C0,2.23902544 2.23479023,0 5.0010033,0 L42.9989967,0 C45.7609746,0 48,2.23479023 48,5.0010033 L48,42.9989967 C48,45.7609746 45.7652098,48 42.9989967,48 L5.0010033,48 C2.23902544,48 0,45.7652098 0,42.9989967 L0,5.0010033 Z M15,18 C16.656,18 18,16.656 18,15 C18,13.344 16.656,12 15,12 C13.344,12 12,13.344 12,15 C12,16.656 13.344,18 15,18 Z M21,15 L21,17 L36,17 L36,15 L21,15 Z M15,27 C16.656,27 18,25.656 18,24 C18,22.344 16.656,21 15,21 C13.344,21 12,22.344 12,24 C12,25.656 13.344,27 15,27 Z M21,23 L21,25 L36,25 L36,23 L21,23 Z M15,36 C16.656,36 18,34.656 18,33 C18,31.344 16.656,30 15,30 C13.344,30 12,31.344 12,33 C12,34.656 13.344,36 15,36 Z M21,32 L21,34 L36,34 L36,32 L21,32 Z"/>
</svg>
