<?xml version="1.0" encoding="UTF-8"?>
<svg width="48px" height="48px" viewBox="0 0 48 48" version="1.1" xmlns="http://www.w3.org/2000/svg" xmlns:xlink="http://www.w3.org/1999/xlink">
    <!-- Generator: Sketch 41.2 (35397) - http://www.bohemiancoding.com/sketch -->
    <title>ButtonWhite-viewGrid-selected_true</title>
    <desc>Created with Sketch.</desc>
    <defs></defs>
    <g id="Buttons-and-tabs" stroke="none" stroke-width="1" fill="none" fill-rule="evenodd">
        <g id="ButtonWhite-viewGrid-selected_true" fill="#FFFFFF">
            <g id="ButtonWhite/view/grid/selected/true">
                <path d="M0,5.0010033 C0,2.23902544 2.23479023,0 5.0010033,0 L42.9989967,0 C45.7609746,0 48,2.23479023 48,5.0010033 L48,42.9989967 C48,45.7609746 45.7652098,48 42.9989967,48 L5.0010033,48 C2.23902544,48 0,45.7652098 0,42.9989967 L0,5.0010033 Z M12,12 L22,12 L22,22 L12,22 L12,12 Z M26,12 L36,12 L36,22 L26,22 L26,12 Z M12,26 L22,26 L22,36 L12,36 L12,26 Z M26,26 L36,26 L36,36 L26,36 L26,26 Z" id="Combined-Shape"></path>
            </g>
        </g>
    </g>
</svg>