<svg xmlns="http://www.w3.org/2000/svg" width="48" height="48" viewBox="0 0 48 48">
  <g fill="none" fill-rule="evenodd">
    <rect width="48" height="48"/>
    <g stroke-linecap="round" stroke-linejoin="round" transform="translate(8 3)">
      <path stroke="#2196F3" stroke-width="2" d="M6 24L26 24M6 30L26 30M6 36L22 36"/>
      <g stroke-width="2" transform="translate(6 6)">
        <path stroke="#FF5722" stroke-opacity=".6" d="M12 12L12 8M8 12L8 2M4 4L4 12"/>
        <polyline stroke="#2196F3" points="14 12 0 12 0 0"/>
      </g>
      <path stroke="#2196F3" stroke-width="2" d="M3,0 L23,0 L32,9 L32,39 C32,40.656 30.656,42 29,42 L3,42 C1.344,42 0,40.656 0,39 L0,3 C0,1.344 1.344,0 3,0"/>
      <path stroke="#2196F3" stroke-width="2" d="M22,0 L22,7 C22,8.656 23.344,10 25,10 L32,10"/>
    </g>
  </g>
</svg>
