<svg xmlns="http://www.w3.org/2000/svg" xmlns:xlink="http://www.w3.org/1999/xlink" width="48" height="48" viewBox="0 0 48 48">
  <defs>
    <path id="icon-h2o_graphics_library-a" d="M7.4821412,6.64346474 C7.12410972,4.86508503 5.84092116,2.89874056 4.60108353,0.996101264 C4.40575016,0.697436351 4.21195192,0.400351862 4.02630243,0.110042058 C3.93195514,-0.0366806859 3.69428755,-0.0366806859 3.59994026,0.110042058 C3.41326902,0.401393734 3.2199741,0.697436351 3.02514909,0.996101264 C1.78429475,2.89926904 0.501617055,4.86508503 0.1435891,6.64346474 C-0.186897701,8.28608402 0.0573976043,9.72715896 0.83210436,10.7009367 C1.50888824,11.5504449 2.53962168,12 3.81311631,12 C5.08661597,12 6.11735444,11.5504449 6.79464667,10.7009367 C7.56832968,9.72768744 7.8136427,8.28660747 7.4821412,6.64346474 L7.4821412,6.64346474 Z M2.37692357,9.74909363 C2.32950078,9.78877033 2.27237399,9.80809781 2.21627397,9.80809781 C2.14181284,9.80809781 2.06888181,9.77467737 2.0183938,9.71097723 C1.53949008,9.10948495 1.40586875,8.13257652 1.64200122,6.95935326 C1.67056462,6.81785497 1.80316421,6.72700072 1.94341426,6.75520173 C2.08112255,6.784958 2.16985782,6.92227369 2.14181284,7.06430046 C1.93729389,8.07984371 2.03368969,8.90272622 2.41415413,9.38151418 C2.50239112,9.49377462 2.48556011,9.65824441 2.37692357,9.74909363 L2.37692357,9.74909363 Z"/>
  </defs>
  <g fill="none" fill-rule="evenodd">
    <rect width="48" height="48"/>
    <g transform="translate(2 2)">
      <rect width="45" height="45"/>
      <rect width="8" height="17" x="1" y="28" fill="#2196F3"/>
      <rect width="8" height="14" x="25" y="31" fill="#2196F3"/>
      <rect width="8" height="20" x="13" y="25" fill="#2196F3"/>
      <rect width="8" height="24" x="37" y="21" fill="#2196F3"/>
      <path stroke="#FF5722" stroke-linecap="round" stroke-linejoin="round" stroke-width="2" d="M3,23 L17,9"/>
      <path stroke="#FF3B30" stroke-linecap="round" stroke-linejoin="round" stroke-width="2" d="M29,18 L43,4"/>
      <path fill="#FF5722" d="M25.5793292,16.1651156 L19.4142136,10 L18,11.4142136 L24.6470033,18.0612168 C24.8970137,17.355403 25.2121436,16.7164018 25.5793292,16.1651156 Z"/>
      <path stroke="#FF3B30" stroke-linecap="round" stroke-linejoin="round" stroke-width="2" d="M17,9 L22,14"/>
      <g transform="translate(24 12)">
        <use fill="#BBDEFB" xlink:href="#icon-h2o_graphics_library-a"/>
        <path stroke="#FFF" stroke-width="2" d="M8.46247137,6.44610022 L8.46239089,6.44570089 C8.84789952,8.35653904 8.55275028,10.0963336 7.57655348,11.3243321 C6.69998045,12.4237923 5.37785094,13 3.81311631,13 C2.24823607,13 0.926024011,12.4236812 0.0495466879,11.3235148 C-0.92633169,10.0968718 -1.22136229,8.35778385 -0.836741447,6.44610209 C-0.569751876,5.11992398 0.0936813739,3.75456802 1.2523093,1.90364877 C1.47236254,1.5521116 1.69381266,1.20776219 2.02593683,0.697782673 C2.10684299,0.573599252 2.10684299,0.573599252 2.18759438,0.449747806 C2.50039246,-0.0297687111 2.60646408,-0.193015329 2.75882835,-0.430819069 C3.24682975,-1.18972698 4.37941294,-1.18972698 4.8687698,-0.428705305 C5.02652538,-0.182014675 5.18439721,0.0610117174 5.43889838,0.450146813 C5.52222304,0.578012937 5.52222304,0.578012937 5.60585015,0.706442929 C5.93944999,1.21897773 6.16206852,1.56540546 6.3831271,1.91895194 C7.53540789,3.76183368 8.19628569,5.12392815 8.46247137,6.44610022 Z M1.73523514,8.98212821 C1.86986948,8.86948519 2.0405377,8.80809781 2.21627397,8.80809781 C2.44497564,8.80809781 2.6615237,8.91248198 2.80208792,9.08983028 C2.53281335,8.75162356 2.43914756,8.06686595 2.62234209,7.15666464 C2.54256338,7.55187583 2.15221501,7.81720227 1.74628333,7.7355789 C1.33276478,7.64633081 1.08395802,7.25950452 1.16075637,6.87057849 C0.904361498,8.14367664 1.03460699,9.25282294 1.63124279,10.0036475 C1.38290518,9.68772019 1.42853954,9.23860777 1.73541172,8.98198051 L1.73523514,8.98212821 Z"/>
        <path fill="#BBDEFB" d="M7.4821412,6.64346474 C7.12410972,4.86508503 5.84092116,2.89874056 4.60108353,0.996101264 C4.40575016,0.697436351 4.21195192,0.400351862 4.02630243,0.110042058 C3.93195514,-0.0366806859 3.69428755,-0.0366806859 3.59994026,0.110042058 C3.41326902,0.401393734 3.2199741,0.697436351 3.02514909,0.996101264 C1.78429475,2.89926904 0.501617055,4.86508503 0.1435891,6.64346474 C-0.186897701,8.28608402 0.0573976043,9.72715896 0.83210436,10.7009367 C1.50888824,11.5504449 2.53962168,12 3.81311631,12 C5.08661597,12 6.11735444,11.5504449 6.79464667,10.7009367 C7.56832968,9.72768744 7.8136427,8.28660747 7.4821412,6.64346474 L7.4821412,6.64346474 Z M2.37692357,9.74909363 C2.32950078,9.78877033 2.27237399,9.80809781 2.21627397,9.80809781 C2.14181284,9.80809781 2.06888181,9.77467737 2.0183938,9.71097723 C1.53949008,9.10948495 1.40586875,8.13257652 1.64200122,6.95935326 C1.67056462,6.81785497 1.80316421,6.72700072 1.94341426,6.75520173 C2.08112255,6.784958 2.16985782,6.92227369 2.14181284,7.06430046 C1.93729389,8.07984371 2.03368969,8.90272622 2.41415413,9.38151418 C2.50239112,9.49377462 2.48556011,9.65824441 2.37692357,9.74909363 L2.37692357,9.74909363 Z"/>
        <path fill="#FF5722" d="M2.37692357,9.74909363 C2.32950078,9.78877033 2.27237399,9.80809781 2.21627397,9.80809781 C2.14181284,9.80809781 2.06888181,9.77467737 2.0183938,9.71097723 C1.53949008,9.10948495 1.40586875,8.13257652 1.64200122,6.95935326 C1.67056462,6.81785497 1.80316421,6.72700072 1.94341426,6.75520173 C2.08112255,6.784958 2.16985782,6.92227369 2.14181284,7.06430046 C1.93729389,8.07984371 2.03368969,8.90272622 2.41415413,9.38151418 C2.50239112,9.49377462 2.48556011,9.65824441 2.37692357,9.74909363 L2.37692357,9.74909363 Z"/>
      </g>
    </g>
  </g>
</svg>
