<svg xmlns="http://www.w3.org/2000/svg" width="48" height="48" viewBox="0 0 48 48">
  <g fill="none" fill-rule="evenodd">
    <rect width="48" height="48"/>
    <g transform="translate(2 2)">
      <rect width="42" height="42" x="1" y="1" stroke="#2196F3" stroke-width="2"/>
      <g fill="#FF5722" fill-opacity=".6" transform="translate(14 16)">
        <rect width="3" height="5" x="12" y="6"/>
        <rect width="3" height="11" x="6"/>
        <rect width="3" height="7" y="4"/>
      </g>
      <g transform="translate(9 9)">
        <path fill="#2196F3" d="M21.1472,21.1338 L21.5306,21.1122 L21.788,21.2688 L27.0908,26.5716 C27.3842,26.865 27.3374,27.387 26.9846,27.738 C26.6336,28.0908 26.1116,28.1376 25.8182,27.8442 L20.5154,22.5414 C20.222,22.248 20.2706,21.726 20.6216,21.375 C20.9438,21.1392 20.7692,21.222 21.1472,21.1338 L21.1472,21.1338 Z"/>
        <circle cx="12.77" cy="13.4" r="11.5" stroke="#2196F3" stroke-width="2"/>
      </g>
    </g>
  </g>
</svg>
