<svg xmlns="http://www.w3.org/2000/svg" width="48" height="48" viewBox="0 0 48 48">
  <g fill="none" fill-rule="evenodd">
    <rect width="48" height="48"/>
    <rect width="44" height="2" x="2" y="45" fill="#2196F3"/>
    <path fill="#FF5722" d="M14 35.498048C14 36.5001097 13.8929706 37.3501116 13.6789087 38.0480794 13.4648468 38.7460472 13.1626462 39.3136806 12.772298 39.7509965 12.3819498 40.1883124 11.9113354 40.5054341 11.3604407 40.702371 10.809546 40.899308 10.1941272 40.997775 9.51416579 40.997775 8.8405003 40.997775 8.22665545 40.899308 7.6726128 40.702371 7.11857016 40.5054341 6.64323388 40.1883124 6.24658972 39.7509965 5.84994555 39.3136806 5.54302312 38.7460472 5.32581322 38.0480794 5.10860332 37.3501116 5 36.5001097 5 35.498048L5 33.4562852C5 32.4542236 5.10702936 31.6056697 5.32109129 30.910598 5.53515322 30.2155264 5.83892773 29.6522372 6.23242392 29.2207135 6.62592012 28.7891898 7.09968243 28.4778603 7.65372508 28.2867156 8.20776772 28.0955709 8.82161258 28 9.49527807 28 10.1752395 28 10.7922323 28.0955709 11.3462749 28.2867156 11.9003176 28.4778603 12.3740799 28.7891898 12.7675761 29.2207135 13.1610723 29.6522372 13.4648468 30.2155264 13.6789087 30.910598 13.8929706 31.6056697 14 32.4542236 14 33.4562852L14 35.498048zM11.7051417 33.1348162C11.7051417 32.4918749 11.6563489 31.9517544 11.5587618 31.5144385 11.4611747 31.0771226 11.3179443 30.7237998 11.1290661 30.4544595 10.9401879 30.1851193 10.7088156 29.9910813 10.4349423 29.8723399 10.1610689 29.7535985 9.84785066 29.6942287 9.49527807 29.6942287 9.14270548 29.6942287 8.8294872 29.7535985 8.55561385 29.8723399 8.2817405 29.9910813 8.05036821 30.1851193 7.86149003 30.4544595 7.67261186 30.7237998 7.52938139 31.0771226 7.43179433 31.5144385 7.33420728 31.9517544 7.28541448 32.4918749 7.28541448 33.1348162L7.28541448 35.8021404C7.28541448 36.4392894 7.33578124 36.9808579 7.43651626 37.4268622 7.53725129 37.8728665 7.68205572 38.2348776 7.87093389 38.5129063 8.05981207 38.7909349 8.29275832 38.9936611 8.56977964 39.1210909 8.84680097 39.2485207 9.1615932 39.3122347 9.51416579 39.3122347 9.87303432 39.3122347 10.1878266 39.2485207 10.4585519 39.1210909 10.7292773 38.9936611 10.9575017 38.7909349 11.1432319 38.5129063 11.3289621 38.2348776 11.4690446 37.8728665 11.5634837 37.4268622 11.6579228 36.9808579 11.7051417 36.4392894 11.7051417 35.8021404L11.7051417 33.1348162zM43 35.498048C43 36.5001097 42.8929706 37.3501116 42.6789087 38.0480794 42.4648468 38.7460472 42.1626462 39.3136806 41.772298 39.7509965 41.3819498 40.1883124 40.9113354 40.5054341 40.3604407 40.702371 39.809546 40.899308 39.1941272 40.997775 38.5141658 40.997775 37.8405003 40.997775 37.2266554 40.899308 36.6726128 40.702371 36.1185702 40.5054341 35.6432339 40.1883124 35.2465897 39.7509965 34.8499456 39.3136806 34.5430231 38.7460472 34.3258132 38.0480794 34.1086033 37.3501116 34 36.5001097 34 35.498048L34 33.4562852C34 32.4542236 34.1070294 31.6056697 34.3210913 30.910598 34.5351532 30.2155264 34.8389277 29.6522372 35.2324239 29.2207135 35.6259201 28.7891898 36.0996824 28.4778603 36.6537251 28.2867156 37.2077677 28.0955709 37.8216126 28 38.4952781 28 39.1752395 28 39.7922323 28.0955709 40.3462749 28.2867156 40.9003176 28.4778603 41.3740799 28.7891898 41.7675761 29.2207135 42.1610723 29.6522372 42.4648468 30.2155264 42.6789087 30.910598 42.8929706 31.6056697 43 32.4542236 43 33.4562852L43 35.498048zM40.7051417 33.1348162C40.7051417 32.4918749 40.6563489 31.9517544 40.5587618 31.5144385 40.4611747 31.0771226 40.3179443 30.7237998 40.1290661 30.4544595 39.9401879 30.1851193 39.7088156 29.9910813 39.4349423 29.8723399 39.1610689 29.7535985 38.8478507 29.6942287 38.4952781 29.6942287 38.1427055 29.6942287 37.8294872 29.7535985 37.5556139 29.8723399 37.2817405 29.9910813 37.0503682 30.1851193 36.86149 30.4544595 36.6726119 30.7237998 36.5293814 31.0771226 36.4317943 31.5144385 36.3342073 31.9517544 36.2854145 32.4918749 36.2854145 33.1348162L36.2854145 35.8021404C36.2854145 36.4392894 36.3357812 36.9808579 36.4365163 37.4268622 36.5372513 37.8728665 36.6820557 38.2348776 36.8709339 38.5129063 37.0598121 38.7909349 37.2927583 38.9936611 37.5697796 39.1210909 37.846801 39.2485207 38.1615932 39.3122347 38.5141658 39.3122347 38.8730343 39.3122347 39.1878266 39.2485207 39.4585519 39.1210909 39.7292773 38.9936611 39.9575017 38.7909349 40.1432319 38.5129063 40.3289621 38.2348776 40.4690446 37.8728665 40.5634837 37.4268622 40.6579228 36.9808579 40.7051417 36.4392894 40.7051417 35.8021404L40.7051417 33.1348162z"/>
    <polygon fill="#2196F3" points="27 46 24.005 46 24.005 26.616 18 28.77 18 26.129 26.533 23 27 23"/>
    <path fill="#2196F3" d="M0.246,22.658 C-0.116,22.242 -0.072,21.612 0.344,21.246 L23.344,1.246 C23.72,0.918 24.28,0.918 24.656,1.246 L30,5.892 L30,2.002 C30,1.45 30.45,1.002 31,1.002 L37,1.002 C37.55,1.002 38,1.452 38,2.002 L38,12.852 L47.656,21.248 C48.072,21.612 48.116,22.244 47.754,22.662 C47.392,23.08 46.758,23.12 46.342,22.76 L36.342,14.064 C36.126,13.872 35.998,13.6 35.998,13.31 L35.998,3.002 L31.998,3.002 L31.998,8.086 C31.998,8.478 31.77,8.832 31.414,8.996 C31.06,9.158 30.64,9.098 30.342,8.84 L23.998,3.326 L1.654,22.756 C1.466,22.922 1.234,23.002 1,23.002 C0.72,23.002 0.444,22.884 0.246,22.658 Z"/>
  </g>
</svg>
