<svg xmlns="http://www.w3.org/2000/svg" width="48" height="48" viewBox="0 0 48 48">
  <g fill="none" fill-rule="evenodd">
    <rect width="48" height="48"/>
    <g transform="translate(2 3)">
      <rect width="8" height="17" y="27" fill="#2196F3"/>
      <rect width="8" height="14" x="24" y="30" fill="#2196F3"/>
      <rect width="8" height="20" x="12" y="24" fill="#2196F3"/>
      <rect width="8" height="25" x="36" y="19" fill="#2196F3"/>
      <path stroke="#2196F3" stroke-linecap="round" stroke-linejoin="round" stroke-width="2" d="M2,22 L16,8"/>
      <path fill="#2196F3" d="M30.6673115,14.2321834 L34.1923882,10.7071068 L35.6066017,12.1213203 L31.8440528,15.8838693 C31.5089219,15.2399578 31.1117853,14.6815725 30.6673115,14.2321834 Z"/>
      <path fill="#FF5722" d="M29.0639648,21.3217773 C29.0639648,21.1440421 29.0364586,20.9811205 28.9814453,20.8330078 C28.926432,20.6848951 28.8386236,20.5494798 28.7180176,20.4267578 C28.5974115,20.3040358 28.4397796,20.1897792 28.2451172,20.0839844 C28.0504548,19.9781896 27.813478,19.8766281 27.5341797,19.7792969 C27.1279277,19.6396477 26.7597673,19.4862476 26.4296875,19.3190918 C26.0996077,19.151936 25.8181978,18.9562186 25.5854492,18.7319336 C25.3527007,18.5076486 25.1728522,18.2484552 25.0458984,17.9543457 C24.9189447,17.6602362 24.8554688,17.3164082 24.8554688,16.9228516 C24.8554688,16.567381 24.9115392,16.2425959 25.0236816,15.9484863 C25.1358241,15.6543768 25.2955719,15.3983572 25.5029297,15.1804199 C25.7102875,14.9624826 25.9599595,14.785808 26.2519531,14.6503906 C26.5439468,14.5149733 26.8719057,14.426107 27.2358398,14.3837891 L27.2358398,13 L28.2514648,13 L28.2514648,14.3964844 C28.6111672,14.4472659 28.9338365,14.5498853 29.2194824,14.7043457 C29.5051284,14.8588061 29.7473948,15.0619291 29.9462891,15.3137207 C30.1451833,15.5655123 30.2975255,15.8617333 30.4033203,16.2023926 C30.5091151,16.5430518 30.5620117,16.9270812 30.5620117,17.3544922 L29.0258789,17.3544922 C29.0258789,17.0878893 28.9951989,16.8487966 28.9338379,16.637207 C28.8724769,16.4256174 28.7846685,16.245769 28.6704102,16.0976562 C28.5561518,15.9495435 28.4165047,15.8352869 28.2514648,15.7548828 C28.086425,15.6744788 27.9002289,15.6342773 27.6928711,15.6342773 C27.4685861,15.6342773 27.2760425,15.6660153 27.1152344,15.7294922 C26.9544263,15.7929691 26.8200689,15.8807774 26.7121582,15.9929199 C26.6042475,16.1050624 26.5249026,16.2394198 26.4741211,16.3959961 C26.4233396,16.5525724 26.3979492,16.7239574 26.3979492,16.9101562 C26.3979492,17.0878915 26.4233396,17.2486972 26.4741211,17.3925781 C26.5249026,17.5364591 26.6105951,17.6687006 26.7312012,17.7893066 C26.8518072,17.9099127 27.0126129,18.0241694 27.213623,18.1320801 C27.4146332,18.2399908 27.6632472,18.3468419 27.9594727,18.4526367 C28.3699565,18.6007494 28.7381169,18.7583813 29.0639648,18.9255371 C29.3898128,19.0926929 29.666991,19.2873524 29.8955078,19.5095215 C30.1240246,19.7316906 30.2996413,19.9887681 30.4223633,20.2807617 C30.5450852,20.5727554 30.6064453,20.9155254 30.6064453,21.309082 C30.6064453,21.6814797 30.5472011,22.0147283 30.4287109,22.3088379 C30.3102208,22.6029474 30.1430675,22.8568511 29.9272461,23.0705566 C29.7114247,23.2842621 29.4501155,23.4556471 29.1433105,23.5847168 C28.8365056,23.7137865 28.4947935,23.7973631 28.1181641,23.8354492 L28.1181641,25.0732422 L27.1088867,25.0732422 L27.1088867,23.8417969 C26.7703434,23.8037107 26.4445003,23.7233079 26.1313477,23.6005859 C25.818195,23.477864 25.5410168,23.3011893 25.2998047,23.0705566 C25.0585925,22.839924 24.864991,22.5479347 24.7189941,22.1945801 C24.5729973,21.8412254 24.5,21.4169947 24.5,20.921875 L26.0424805,20.921875 C26.0424805,21.247723 26.0879716,21.5185536 26.1789551,21.734375 C26.2699386,21.9501964 26.388427,22.1215814 26.5344238,22.2485352 C26.6804207,22.3754889 26.8454581,22.4654131 27.029541,22.5183105 C27.213624,22.5712079 27.3987621,22.5976562 27.5849609,22.5976562 C28.0673852,22.5976562 28.4344877,22.4812837 28.6862793,22.2485352 C28.9380709,22.0157866 29.0639648,21.7068704 29.0639648,21.3217773 L29.0639648,21.3217773 Z"/>
      <path fill="#2196F3" d="M24.5793292,15.1651156 L18.4142136,9 L17,10.4142136 L23.6470033,17.0612168 C23.8970137,16.355403 24.2121436,15.7164018 24.5793292,15.1651156 Z"/>
      <path stroke="#2196F3" stroke-linecap="round" stroke-linejoin="round" stroke-width="2" d="M16,8 L21,13"/>
      <g stroke="#2196F3" stroke-linecap="round" stroke-linejoin="round" stroke-width="2" transform="rotate(43 17.692 47.888)">
        <path d="M1.10134124e-13 3L10 3M3 2.30926389e-13L3 3M7 2.48689958e-14L7 3M1 3L1 5C1 7.209 2.791 9 5 9 7.209 9 9 7.209 9 5L9 3"/>
      </g>
    </g>
  </g>
</svg>
