<?xml version="1.0" encoding="UTF-8"?>
<svg width="48px" height="48px" viewBox="0 0 48 48" version="1.1" xmlns="http://www.w3.org/2000/svg" xmlns:xlink="http://www.w3.org/1999/xlink">
    <!-- Generator: Sketch 41.2 (35397) - http://www.bohemiancoding.com/sketch -->
    <title>Icon-48 pt-research_reports_white</title>
    <desc>Created with Sketch.</desc>
    <defs></defs>
    <g id="Logos-and-icons" stroke="none" stroke-width="1" fill="none" fill-rule="evenodd">
        <g id="Icon-48-pt-research_reports_white">
            <g id="Icon/48-pt/research-reports-white">
                <g id="Icon/48-pt/research-reports">
                    <rect id="Container" x="0" y="0" width="48" height="48"></rect>
                    <g id="Icon-research-report" transform="translate(8.000000, 3.000000)" stroke="#FFFFFF" stroke-width="2" stroke-linecap="round" stroke-linejoin="round">
                        <path d="M6,24 L26,24" id="top-line"></path>
                        <path d="M6,30 L26,30" id="middle-line"></path>
                        <path d="M6,36 L22,36" id="bottom-line"></path>
                        <g id="Graph" transform="translate(6.000000, 6.000000)">
                            <path d="M12,12 L12,8" id="Stroke-29"></path>
                            <path d="M8,12 L8,2" id="Stroke-30"></path>
                            <path d="M4,4 L4,12" id="Stroke-31"></path>
                            <polyline id="Stroke-28" points="14 12 0 12 0 0"></polyline>
                        </g>
                        <path d="M3,0 L23,0 L32,9 L32,39 C32,40.656 30.656,42 29,42 L3,42 C1.344,42 0,40.656 0,39 L0,3 C0,1.344 1.344,0 3,0" id="Stroke-32"></path>
                        <path d="M22,0 L22,7 C22,8.656 23.344,10 25,10 L32,10" id="Stroke-33"></path>
                    </g>
                </g>
            </g>
        </g>
    </g>
</svg>