<?xml version="1.0" encoding="UTF-8"?>
<svg width="48px" height="48px" viewBox="0 0 48 48" version="1.1" xmlns="http://www.w3.org/2000/svg" xmlns:xlink="http://www.w3.org/1999/xlink">
    <!-- Generator: Sketch 41.2 (35397) - http://www.bohemiancoding.com/sketch -->
    <title>Icon-48 pt-h2o_graphics_library</title>
    <desc>Created with Sketch.</desc>
    <defs>
        <path d="M7.4821412,6.64346474 C7.12410972,4.86508503 5.84092116,2.89874056 4.60108353,0.996101264 C4.40575016,0.697436351 4.21195192,0.400351862 4.02630243,0.110042058 C3.93195514,-0.0366806859 3.69428755,-0.0366806859 3.59994026,0.110042058 C3.41326902,0.401393734 3.2199741,0.697436351 3.02514909,0.996101264 C1.78429475,2.89926904 0.501617055,4.86508503 0.1435891,6.64346474 C-0.186897701,8.28608402 0.0573976043,9.72715896 0.83210436,10.7009367 C1.50888824,11.5504449 2.53962168,12 3.81311631,12 C5.08661597,12 6.11735444,11.5504449 6.79464667,10.7009367 C7.56832968,9.72768744 7.8136427,8.28660747 7.4821412,6.64346474 L7.4821412,6.64346474 Z M2.37692357,9.74909363 C2.32950078,9.78877033 2.27237399,9.80809781 2.21627397,9.80809781 C2.14181284,9.80809781 2.06888181,9.77467737 2.0183938,9.71097723 C1.53949008,9.10948495 1.40586875,8.13257652 1.64200122,6.95935326 C1.67056462,6.81785497 1.80316421,6.72700072 1.94341426,6.75520173 C2.08112255,6.784958 2.16985782,6.92227369 2.14181284,7.06430046 C1.93729389,8.07984371 2.03368969,8.90272622 2.41415413,9.38151418 C2.50239112,9.49377462 2.48556011,9.65824441 2.37692357,9.74909363 L2.37692357,9.74909363 Z" id="path-1"></path>
        <mask id="mask-2" maskContentUnits="userSpaceOnUse" maskUnits="objectBoundingBox" x="-2" y="-2" width="11.6262001" height="16">
            <rect x="-2" y="-2" width="11.6262001" height="16" fill="white"></rect>
            <use xlink:href="#path-1" fill="black"></use>
        </mask>
    </defs>
    <g id="Logos-and-icons" stroke="none" stroke-width="1" fill="none" fill-rule="evenodd">
        <g id="Icon-48-pt-h2o_graphics_library">
            <g id="Icon/48-pt/h2o-graphics-library">
                <rect id="Container" x="0" y="0" width="48" height="48"></rect>
                <g id="h2o-graphics-library" stroke-width="1" fill-rule="evenodd" transform="translate(1.000000, 2.000000)">
                    <rect id="Rectangle-34" x="0" y="0" width="45" height="45"></rect>
                    <rect id="Rectangle-40" fill="#2196F3" x="1" y="28" width="8" height="17"></rect>
                    <rect id="Rectangle-40" fill="#2196F3" x="25" y="31" width="8" height="14"></rect>
                    <rect id="Rectangle-40" fill="#2196F3" x="13" y="25" width="8" height="20"></rect>
                    <rect id="Rectangle-40" fill="#2196F3" x="37" y="20" width="8" height="25"></rect>
                    <path d="M3,23 L17,9" id="Line-2" stroke="#FF5722" stroke-width="2" stroke-linecap="round" stroke-linejoin="round"></path>
                    <path d="M29,18 L43,4" id="Line-2" stroke="#FF3B30" stroke-width="2" stroke-linecap="round" stroke-linejoin="round"></path>
                    <path d="M25.5793292,16.1651156 L19.4142136,10 L18,11.4142136 L24.6470033,18.0612168 C24.8970137,17.355403 25.2121436,16.7164018 25.5793292,16.1651156 Z" id="Combined-Shape" fill="#FF5722"></path>
                    <path d="M17,9 L22,14" id="Line-3" stroke="#FF3B30" stroke-width="2" stroke-linecap="round" stroke-linejoin="round"></path>
                    <g id="Raindrop-with-accent-and-border" transform="translate(24.000000, 12.000000)">
                        <g id="Raindrop">
                            <use fill="#BBDEFB" fill-rule="evenodd" xlink:href="#path-1"></use>
                            <use stroke="#FFFFFF" mask="url(#mask-2)" stroke-width="4" xlink:href="#path-1"></use>
                        </g>
                        <path d="M7.4821412,6.64346474 C7.12410972,4.86508503 5.84092116,2.89874056 4.60108353,0.996101264 C4.40575016,0.697436351 4.21195192,0.400351862 4.02630243,0.110042058 C3.93195514,-0.0366806859 3.69428755,-0.0366806859 3.59994026,0.110042058 C3.41326902,0.401393734 3.2199741,0.697436351 3.02514909,0.996101264 C1.78429475,2.89926904 0.501617055,4.86508503 0.1435891,6.64346474 C-0.186897701,8.28608402 0.0573976043,9.72715896 0.83210436,10.7009367 C1.50888824,11.5504449 2.53962168,12 3.81311631,12 C5.08661597,12 6.11735444,11.5504449 6.79464667,10.7009367 C7.56832968,9.72768744 7.8136427,8.28660747 7.4821412,6.64346474 L7.4821412,6.64346474 Z M2.37692357,9.74909363 C2.32950078,9.78877033 2.27237399,9.80809781 2.21627397,9.80809781 C2.14181284,9.80809781 2.06888181,9.77467737 2.0183938,9.71097723 C1.53949008,9.10948495 1.40586875,8.13257652 1.64200122,6.95935326 C1.67056462,6.81785497 1.80316421,6.72700072 1.94341426,6.75520173 C2.08112255,6.784958 2.16985782,6.92227369 2.14181284,7.06430046 C1.93729389,8.07984371 2.03368969,8.90272622 2.41415413,9.38151418 C2.50239112,9.49377462 2.48556011,9.65824441 2.37692357,9.74909363 L2.37692357,9.74909363 Z" id="Raindrop" fill="#BBDEFB"></path>
                        <path d="M2.37692357,9.74909363 C2.32950078,9.78877033 2.27237399,9.80809781 2.21627397,9.80809781 C2.14181284,9.80809781 2.06888181,9.77467737 2.0183938,9.71097723 C1.53949008,9.10948495 1.40586875,8.13257652 1.64200122,6.95935326 C1.67056462,6.81785497 1.80316421,6.72700072 1.94341426,6.75520173 C2.08112255,6.784958 2.16985782,6.92227369 2.14181284,7.06430046 C1.93729389,8.07984371 2.03368969,8.90272622 2.41415413,9.38151418 C2.50239112,9.49377462 2.48556011,9.65824441 2.37692357,9.74909363 L2.37692357,9.74909363 Z" id="Path" fill="#FF5722"></path>
                    </g>
                </g>
            </g>
        </g>
    </g>
</svg>