<svg xmlns="http://www.w3.org/2000/svg" width="48" height="48" viewBox="0 0 48 48">
  <g fill="none" fill-rule="evenodd">
    <rect width="48" height="48"/>
    <path fill="#2196F3" d="M24,47 C11.2974508,47 1,36.7025492 1,24 C1,11.2974508 11.2974508,1 24,1 C36.7025492,1 47,11.2974508 47,24 C47,36.7025492 36.7025492,47 24,47 Z M12,35 L12,35 C14.520714,39.2078961 18.9530673,42 24,42 C29.0469327,42 33.479286,39.2078961 36,35 C33.479286,30.7921039 29.0469327,28 24,28 C18.9530673,28 14.520714,30.7921039 12,35 Z M24,25 C27.8659932,25 31,21.8659932 31,18 C31,14.1340068 27.8659932,11 24,11 C20.1340068,11 17,14.1340068 17,18 C17,21.8659932 20.1340068,25 24,25 Z"/>
  </g>
</svg>
