<?xml version="1.0" encoding="UTF-8"?>
<svg width="48px" height="48px" viewBox="0 0 48 48" version="1.1" xmlns="http://www.w3.org/2000/svg" xmlns:xlink="http://www.w3.org/1999/xlink">
    <!-- Generator: Sketch 42 (36781) - http://www.bohemiancoding.com/sketch -->
    <title>Icon-data libraries</title>
    <desc>Created with Sketch.</desc>
    <defs>
        <polygon id="path-1" points="0 45 45 45 45 11 0 11"></polygon>
        <mask id="mask-2" maskContentUnits="userSpaceOnUse" maskUnits="objectBoundingBox" x="0" y="0" width="45" height="34" fill="white">
            <use xlink:href="#path-1"></use>
        </mask>
    </defs>
    <g id="Logos-and-icons" stroke="none" stroke-width="1" fill="none" fill-rule="evenodd">
        <g id="Icon-data-libraries">
            <g id="Icon/data-libraries">
                <g id="Data-libraries" transform="translate(2.000000, 2.000000)">
                    <rect id="Rectangle-34" x="0" y="0" width="45" height="45"></rect>
                    <use id="Box" stroke="#2196F3" mask="url(#mask-2)" stroke-width="4" xlink:href="#path-1"></use>
                    <g id="Icon-data" transform="translate(6.000000, 17.000000)" stroke-linecap="round" stroke-width="2" stroke="#2196F3" stroke-linejoin="round">
                        <g id="Top-row">
                            <path d="M16.5862434,4.04761905 C16.5862434,6.28271429 15.1686053,8.0952381 13.4201058,8.0952381 C11.6716063,8.0952381 10.2539683,6.28271429 10.2539683,4.04761905 C10.2539683,1.81252381 11.6716063,0 13.4201058,0 C15.1686053,0 16.5862434,1.81252381 16.5862434,4.04761905 L16.5862434,4.04761905 Z" id="Stroke-236"></path>
                            <path d="M32.4169312,4.04761905 C32.4169312,6.28271429 30.9992931,8.0952381 29.2507937,8.0952381 C27.5022942,8.0952381 26.0846561,6.28271429 26.0846561,4.04761905 C26.0846561,1.81252381 27.5022942,0 29.2507937,0 C30.9992931,0 32.4169312,1.81252381 32.4169312,4.04761905 L32.4169312,4.04761905 Z" id="Stroke-237"></path>
                            <path d="M21.3354497,0 L21.3354497,8.0952381" id="Stroke-245"></path>
                            <path d="M5.5047619,0 L5.5047619,8.0952381" id="Stroke-246"></path>
                            <path d="M0.755555556,0 L0.755555556,8.0952381" id="Stroke-247"></path>
                        </g>
                        <g id="Bottom-row" transform="translate(0.000000, 12.952381)">
                            <path d="M7.08783069,4.04761905 C7.08783069,6.28271429 5.67019259,8.0952381 3.92169312,8.0952381 C2.17319365,8.0952381 0.755555556,6.28271429 0.755555556,4.04761905 C0.755555556,1.81252381 2.17319365,0 3.92169312,0 C5.67019259,0 7.08783069,1.81252381 7.08783069,4.04761905 L7.08783069,4.04761905 Z" id="Stroke-238"></path>
                            <path d="M11.837037,0 L11.837037,8.0952381" id="Stroke-242"></path>
                            <path d="M16.5862434,0 L16.5862434,8.0952381" id="Stroke-244"></path>
                            <path d="M27.6677249,4.04761905 C27.6677249,6.28271429 26.2500868,8.0952381 24.5015873,8.0952381 C22.7530878,8.0952381 21.3354497,6.28271429 21.3354497,4.04761905 C21.3354497,1.81252381 22.7530878,0 24.5015873,0 C26.2500868,0 27.6677249,1.81252381 27.6677249,4.04761905 L27.6677249,4.04761905 Z" id="Stroke-239"></path>
                            <path d="M32.4169312,0 L32.4169312,8.0952381" id="Stroke-248"></path>
                        </g>
                    </g>
                    <path d="M5,8 L41,8" id="Stroke-39" stroke="#2196F3" stroke-width="2"></path>
                    <path d="M9,4 L37,4" id="Stroke-40" stroke="#2196F3" stroke-width="2"></path>
                </g>
            </g>
        </g>
    </g>
</svg>