<svg xmlns="http://www.w3.org/2000/svg" width="48" height="48" viewBox="0 0 48 48">
  <g fill="none" fill-rule="evenodd">
    <rect width="48" height="48"/>
    <g transform="translate(2 2)">
      <rect width="45" height="45"/>
      <path stroke="#2196F3" stroke-width="2" d="M1,44 L44,44 L44,12 L1,12 L1,44 Z"/>
      <g stroke="#2196F3" stroke-linecap="round" stroke-linejoin="round" stroke-width="2" transform="translate(6 17)">
        <path d="M16.5862434 4.04761905C16.5862434 6.28271429 15.1686053 8.0952381 13.4201058 8.0952381 11.6716063 8.0952381 10.2539683 6.28271429 10.2539683 4.04761905 10.2539683 1.81252381 11.6716063 0 13.4201058 0 15.1686053 0 16.5862434 1.81252381 16.5862434 4.04761905L16.5862434 4.04761905zM32.4169312 4.04761905C32.4169312 6.28271429 30.9992931 8.0952381 29.2507937 8.0952381 27.5022942 8.0952381 26.0846561 6.28271429 26.0846561 4.04761905 26.0846561 1.81252381 27.5022942 0 29.2507937 0 30.9992931 0 32.4169312 1.81252381 32.4169312 4.04761905L32.4169312 4.04761905zM21.3354497 0L21.3354497 8.0952381M5.5047619 0L5.5047619 8.0952381M.755555556 0L.755555556 8.0952381"/>
        <g transform="translate(0 12.952)">
          <path d="M7.08783069 4.04761905C7.08783069 6.28271429 5.67019259 8.0952381 3.92169312 8.0952381 2.17319365 8.0952381.755555556 6.28271429.755555556 4.04761905.755555556 1.81252381 2.17319365 0 3.92169312 0 5.67019259 0 7.08783069 1.81252381 7.08783069 4.04761905L7.08783069 4.04761905zM11.837037 0L11.837037 8.0952381M16.5862434 0L16.5862434 8.0952381M27.6677249 4.04761905C27.6677249 6.28271429 26.2500868 8.0952381 24.5015873 8.0952381 22.7530878 8.0952381 21.3354497 6.28271429 21.3354497 4.04761905 21.3354497 1.81252381 22.7530878 0 24.5015873 0 26.2500868 0 27.6677249 1.81252381 27.6677249 4.04761905L27.6677249 4.04761905zM32.4169312 0L32.4169312 8.0952381"/>
        </g>
      </g>
      <path stroke="#2196F3" stroke-width="2" d="M5 8L41 8M9 4L37 4"/>
    </g>
  </g>
</svg>
