<svg xmlns="http://www.w3.org/2000/svg" xmlns:xlink="http://www.w3.org/1999/xlink" width="64" height="48" viewBox="0 0 64 48">
  <defs>
    <path id="logo-dataport_icon-a" d="M39.4166667,38 C44.8934904,38 49.3333333,33.5601571 49.3333333,28.0833333 C49.3333333,22.6065096 44.8934904,18.1666667 39.4166667,18.1666667 C33.9398429,18.1666667 29.5,22.6065096 29.5,28.0833333 C29.5,33.5601571 33.9398429,38 39.4166667,38 Z"/>
    <path id="logo-dataport_icon-b" d="M45.4423552,33.5962595 L45.7177846,33.580663 L45.9026973,33.6937379 L49.7121571,37.5226877 C49.9229317,37.7345407 49.8893113,38.111457 49.6358645,38.3649007 C49.3837108,38.6196441 49.0087131,38.6534366 48.7979385,38.4415837 L44.9884786,34.6126338 C44.777704,34.4007809 44.8126176,34.0238646 45.0647713,33.7704208 C45.2962354,33.6001586 45.1708051,33.6599454 45.4423552,33.5962595 L45.4423552,33.5962595 Z"/>
    <path id="logo-dataport_icon-c" d="M39.4166667,37.0250003 C44.3412057,37.0250003 48.3333333,33.0272761 48.3333333,28.0958335 C48.3333333,23.1643908 44.3412057,19.1666667 39.4166667,19.1666667 C34.4921276,19.1666667 30.5,23.1643908 30.5,28.0958335 C30.5,33.0272761 34.4921276,37.0250003 39.4166667,37.0250003 Z"/>
  </defs>
  <g fill="none" fill-rule="evenodd">
    <path fill="#2196F3" d="M54.1616667,20.6783333 C58.7266667,22.3216667 62,26.7716667 62,32 C62,38.6283333 56.7433333,44 50.26,44 L12.4333333,44 C6.67166667,44 2,39.2233333 2,33.3333333 C2,28.1733333 5.585,23.8683333 10.3483333,22.88 L10.35,22.8883333 C10.0116667,21.9916667 9.825,21.0183333 9.825,20 C9.825,15.5816667 13.33,12 17.6516667,12 C20.0783333,12 22.2466667,13.13 23.6833333,14.9016667 L23.68,14.9016667 C25.7633333,8.565 31.6216667,4 38.5216667,4 C47.165,4 54.1733333,11.1633333 54.1733333,20 C54.1733333,20.2266667 54.1683333,20.4533333 54.16,20.6783333 L54.1616667,20.6783333 L54.1616667,20.6783333 Z"/>
    <use fill="#FFF" xlink:href="#logo-dataport_icon-a"/>
    <path stroke="#FFF" stroke-width="2" d="M39.4166667,39 C33.3875581,39 28.5,34.1124419 28.5,28.0833333 C28.5,22.0542248 33.3875581,17.1666667 39.4166667,17.1666667 C45.4457752,17.1666667 50.3333333,22.0542248 50.3333333,28.0833333 C50.3333333,34.1124419 45.4457752,39 39.4166667,39 Z"/>
    <use fill="#2196F3" xlink:href="#logo-dataport_icon-b"/>
    <path stroke="#FFF" stroke-width="2" d="M45.3858195,32.5978589 L45.9730473,32.5646064 L46.5268783,32.9032764 L50.4210659,36.8173875 C51.0513931,37.4509396 50.9609576,38.4540286 50.3465747,39.0683856 C49.7292856,39.6920146 48.7226091,39.7837047 48.0890298,39.1468839 L44.2795699,35.3179341 C43.6495101,34.6846507 43.7408532,33.6832765 44.3558626,33.0651206 L44.4722273,32.9648828 C44.3261908,33.0723054 44.6812758,32.7980759 44.8254486,32.7326804 C44.9666851,32.6686168 45.3169552,32.5985358 45.2140235,32.6226761 L45.3858195,32.5978589 Z"/>
    <use fill="#FFF" xlink:href="#logo-dataport_icon-c"/>
    <path stroke="#2196F3" d="M39.4166667,36.5250003 C44.0649064,36.5250003 47.8333333,32.7512904 47.8333333,28.0958335 C47.8333333,23.4403765 44.0649064,19.6666667 39.4166667,19.6666667 C34.7684269,19.6666667 31,23.4403765 31,28.0958335 C31,32.7512904 34.7684269,36.5250003 39.4166667,36.5250003 Z"/>
    <rect width="2" height="4" x="42.5" y="28" fill="#FF5722" fill-opacity=".6"/>
    <rect width="2" height="8" x="38.5" y="24" fill="#FF5722" fill-opacity=".6"/>
    <rect width="2" height="5.333" x="34.5" y="26.667" fill="#FF5722" fill-opacity=".6"/>
  </g>
</svg>
