<svg xmlns="http://www.w3.org/2000/svg" xmlns:xlink="http://www.w3.org/1999/xlink" width="306" height="208" viewBox="0 0 306 208">
  <defs>
    <path id="logo-dataport-large-blue_fill-a" d="M49.5833333,99.1666667 C76.9674522,99.1666667 99.1666667,76.9674522 99.1666667,49.5833333 C99.1666667,22.1992145 76.9674522,0 49.5833333,0 C22.1992145,0 0,22.1992145 0,49.5833333 C0,76.9674522 22.1992145,99.1666667 49.5833333,99.1666667 Z"/>
    <path id="logo-dataport-large-blue_fill-b" d="M74.711776,72.1479642 L76.0889229,72.0699815 L77.0134863,72.635356 L96.0607857,91.7801052 C97.1146587,92.83937 96.9465563,94.7239515 95.6793225,95.9911702 C94.4185542,97.2648874 92.5435655,97.4338499 91.4896925,96.374585 L72.4423931,77.2298359 C71.3885201,76.1705711 71.563088,74.2859895 72.8238563,73.0187709 C73.981177,72.1674599 73.3540256,72.4663935 74.711776,72.1479642 L74.711776,72.1479642 Z"/>
    <path id="logo-dataport-large-blue_fill-c" d="M44.5833333,89.2916679 C69.2060284,89.2916679 89.1666667,69.3030472 89.1666667,44.645834 C89.1666667,19.9886207 69.2060284,0 44.5833333,0 C19.9606382,0 0,19.9886207 0,44.645834 C0,69.3030472 19.9606382,89.2916679 44.5833333,89.2916679 Z"/>
  </defs>
  <g fill="none" fill-rule="evenodd" transform="translate(0 3)">
    <path fill="#2196F3" d="M263.808333,83.3916667 C286.633333,91.6083333 303,113.858333 303,140 C303,173.141667 276.716667,200 244.3,200 L55.1666667,200 C26.3583333,200 3,176.116667 3,146.666667 C3,120.866667 20.925,99.3416667 44.7416667,94.4 L44.75,94.4416667 C43.0583333,89.9583333 42.125,85.0916667 42.125,80 C42.125,57.9083333 59.65,40 81.2583333,40 C93.3916667,40 104.233333,45.65 111.416667,54.5083333 L111.4,54.5083333 C121.816667,22.825 151.108333,0 185.608333,0 C228.825,0 263.866667,35.8166667 263.866667,80 C263.866667,81.1333333 263.841667,82.2666667 263.8,83.3916667 L263.808333,83.3916667 L263.808333,83.3916667 Z"/>
    <path stroke="#FFF" stroke-linecap="round" stroke-linejoin="round" stroke-opacity=".5" stroke-width="2" d="M170.573192 5.87301587C170.573192 7.73559524 169.391827 9.24603175 167.934744 9.24603175 166.477661 9.24603175 165.296296 7.73559524 165.296296 5.87301587 165.296296 4.01043651 166.477661 2.5 167.934744 2.5 169.391827 2.5 170.573192 4.01043651 170.573192 5.87301587L170.573192 5.87301587zM174.530864 2.5L174.530864 9.24603175M178.488536 2.5L178.488536 9.24603175M187.723104 5.87301587C187.723104 7.73559524 186.541739 9.24603175 185.084656 9.24603175 183.627573 9.24603175 182.446208 7.73559524 182.446208 5.87301587 182.446208 4.01043651 183.627573 2.5 185.084656 2.5 186.541739 2.5 187.723104 4.01043651 187.723104 5.87301587L187.723104 5.87301587zM191.680776 2.5L191.680776 9.24603175M156.056437 5.87301587C156.056437 7.73559524 154.875072 9.24603175 153.417989 9.24603175 151.960907 9.24603175 150.779541 7.73559524 150.779541 5.87301587 150.779541 4.01043651 151.960907 2.5 153.417989 2.5 154.875072 2.5 156.056437 4.01043651 156.056437 5.87301587L156.056437 5.87301587zM160.014109 2.5L160.014109 9.24603175M202.239859 5.87301587C202.239859 7.73559524 201.058494 9.24603175 199.601411 9.24603175 198.144328 9.24603175 196.962963 7.73559524 196.962963 5.87301587 196.962963 4.01043651 198.144328 2.5 199.601411 2.5 201.058494 2.5 202.239859 4.01043651 202.239859 5.87301587L202.239859 5.87301587zM206.197531 2.5L206.197531 9.24603175M210.155203 2.5L210.155203 9.24603175M219.389771 5.87301587C219.389771 7.73559524 218.208406 9.24603175 216.751323 9.24603175 215.29424 9.24603175 214.112875 7.73559524 214.112875 5.87301587 214.112875 4.01043651 215.29424 2.5 216.751323 2.5 218.208406 2.5 219.389771 4.01043651 219.389771 5.87301587L219.389771 5.87301587zM168.488536 18.3730159C168.488536 20.2355952 167.307171 21.7460317 165.850088 21.7460317 164.393005 21.7460317 163.21164 20.2355952 163.21164 18.3730159 163.21164 16.5104365 164.393005 15 165.850088 15 167.307171 15 168.488536 16.5104365 168.488536 18.3730159L168.488536 18.3730159zM181.680776 18.3730159C181.680776 20.2355952 180.499411 21.7460317 179.042328 21.7460317 177.585245 21.7460317 176.40388 20.2355952 176.40388 18.3730159 176.40388 16.5104365 177.585245 15 179.042328 15 180.499411 15 181.680776 16.5104365 181.680776 18.3730159L181.680776 18.3730159zM172.446208 15L172.446208 21.7460317M159.253968 15L159.253968 21.7460317M155.296296 15L155.296296 21.7460317M136.821869 18.3730159C136.821869 20.2355952 135.640504 21.7460317 134.183422 21.7460317 132.726339 21.7460317 131.544974 20.2355952 131.544974 18.3730159 131.544974 16.5104365 132.726339 15 134.183422 15 135.640504 15 136.821869 16.5104365 136.821869 18.3730159L136.821869 18.3730159zM150.014109 18.3730159C150.014109 20.2355952 148.832744 21.7460317 147.375661 21.7460317 145.918578 21.7460317 144.737213 20.2355952 144.737213 18.3730159 144.737213 16.5104365 145.918578 15 147.375661 15 148.832744 15 150.014109 16.5104365 150.014109 18.3730159L150.014109 18.3730159zM140.779541 15L140.779541 21.7460317M199.321869 18.3730159C199.321869 20.2355952 198.140504 21.7460317 196.683422 21.7460317 195.226339 21.7460317 194.044974 20.2355952 194.044974 18.3730159 194.044974 16.5104365 195.226339 15 196.683422 15 198.140504 15 199.321869 16.5104365 199.321869 18.3730159L199.321869 18.3730159zM212.514109 18.3730159C212.514109 20.2355952 211.332744 21.7460317 209.875661 21.7460317 208.418578 21.7460317 207.237213 20.2355952 207.237213 18.3730159 207.237213 16.5104365 208.418578 15 209.875661 15 211.332744 15 212.514109 16.5104365 212.514109 18.3730159L212.514109 18.3730159zM203.279541 15L203.279541 21.7460317M190.087302 15L190.087302 21.7460317M186.12963 15L186.12963 21.7460317M231.821869 18.3730159C231.821869 20.2355952 230.640504 21.7460317 229.183422 21.7460317 227.726339 21.7460317 226.544974 20.2355952 226.544974 18.3730159 226.544974 16.5104365 227.726339 15 229.183422 15 230.640504 15 231.821869 16.5104365 231.821869 18.3730159L231.821869 18.3730159zM235.779541 15L235.779541 21.7460317M222.587302 15L222.587302 21.7460317M218.62963 15L218.62963 21.7460317M170.573192 30.8730159C170.573192 32.7355952 169.391827 34.2460317 167.934744 34.2460317 166.477661 34.2460317 165.296296 32.7355952 165.296296 30.8730159 165.296296 29.0104365 166.477661 27.5 167.934744 27.5 169.391827 27.5 170.573192 29.0104365 170.573192 30.8730159L170.573192 30.8730159zM174.530864 27.5L174.530864 34.2460317M178.488536 27.5L178.488536 34.2460317M187.723104 30.8730159C187.723104 32.7355952 186.541739 34.2460317 185.084656 34.2460317 183.627573 34.2460317 182.446208 32.7355952 182.446208 30.8730159 182.446208 29.0104365 183.627573 27.5 185.084656 27.5 186.541739 27.5 187.723104 29.0104365 187.723104 30.8730159L187.723104 30.8730159zM191.680776 27.5L191.680776 34.2460317M138.906526 30.8730159C138.906526 32.7355952 137.72516 34.2460317 136.268078 34.2460317 134.810995 34.2460317 133.62963 32.7355952 133.62963 30.8730159 133.62963 29.0104365 134.810995 27.5 136.268078 27.5 137.72516 27.5 138.906526 29.0104365 138.906526 30.8730159L138.906526 30.8730159zM142.864198 27.5L142.864198 34.2460317M146.821869 27.5L146.821869 34.2460317M156.056437 30.8730159C156.056437 32.7355952 154.875072 34.2460317 153.417989 34.2460317 151.960907 34.2460317 150.779541 32.7355952 150.779541 30.8730159 150.779541 29.0104365 151.960907 27.5 153.417989 27.5 154.875072 27.5 156.056437 29.0104365 156.056437 30.8730159L156.056437 30.8730159zM160.014109 27.5L160.014109 34.2460317M124.389771 30.8730159C124.389771 32.7355952 123.208406 34.2460317 121.751323 34.2460317 120.29424 34.2460317 119.112875 32.7355952 119.112875 30.8730159 119.112875 29.0104365 120.29424 27.5 121.751323 27.5 123.208406 27.5 124.389771 29.0104365 124.389771 30.8730159L124.389771 30.8730159zM128.347443 27.5L128.347443 34.2460317M202.239859 30.8730159C202.239859 32.7355952 201.058494 34.2460317 199.601411 34.2460317 198.144328 34.2460317 196.962963 32.7355952 196.962963 30.8730159 196.962963 29.0104365 198.144328 27.5 199.601411 27.5 201.058494 27.5 202.239859 29.0104365 202.239859 30.8730159L202.239859 30.8730159zM206.197531 27.5L206.197531 34.2460317M210.155203 27.5L210.155203 34.2460317M219.389771 30.8730159C219.389771 32.7355952 218.208406 34.2460317 216.751323 34.2460317 215.29424 34.2460317 214.112875 32.7355952 214.112875 30.8730159 214.112875 29.0104365 215.29424 27.5 216.751323 27.5 218.208406 27.5 219.389771 29.0104365 219.389771 30.8730159L219.389771 30.8730159zM223.347443 27.5L223.347443 34.2460317M233.906526 30.8730159C233.906526 32.7355952 232.72516 34.2460317 231.268078 34.2460317 229.810995 34.2460317 228.62963 32.7355952 228.62963 30.8730159 228.62963 29.0104365 229.810995 27.5 231.268078 27.5 232.72516 27.5 233.906526 29.0104365 233.906526 30.8730159L233.906526 30.8730159zM237.864198 27.5L237.864198 34.2460317M241.821869 27.5L241.821869 34.2460317M251.056437 30.8730159C251.056437 32.7355952 249.875072 34.2460317 248.417989 34.2460317 246.960907 34.2460317 245.779541 32.7355952 245.779541 30.8730159 245.779541 29.0104365 246.960907 27.5 248.417989 27.5 249.875072 27.5 251.056437 29.0104365 251.056437 30.8730159L251.056437 30.8730159zM184.321869 43.3730159C184.321869 45.2355952 183.140504 46.7460317 181.683422 46.7460317 180.226339 46.7460317 179.044974 45.2355952 179.044974 43.3730159 179.044974 41.5104365 180.226339 40 181.683422 40 183.140504 40 184.321869 41.5104365 184.321869 43.3730159L184.321869 43.3730159zM197.514109 43.3730159C197.514109 45.2355952 196.332744 46.7460317 194.875661 46.7460317 193.418578 46.7460317 192.237213 45.2355952 192.237213 43.3730159 192.237213 41.5104365 193.418578 40 194.875661 40 196.332744 40 197.514109 41.5104365 197.514109 43.3730159L197.514109 43.3730159zM188.279541 40L188.279541 46.7460317M175.087302 40L175.087302 46.7460317M171.12963 40L171.12963 46.7460317M152.655203 43.3730159C152.655203 45.2355952 151.473838 46.7460317 150.016755 46.7460317 148.559672 46.7460317 147.378307 45.2355952 147.378307 43.3730159 147.378307 41.5104365 148.559672 40 150.016755 40 151.473838 40 152.655203 41.5104365 152.655203 43.3730159L152.655203 43.3730159zM165.847443 43.3730159C165.847443 45.2355952 164.666078 46.7460317 163.208995 46.7460317 161.751912 46.7460317 160.570547 45.2355952 160.570547 43.3730159 160.570547 41.5104365 161.751912 40 163.208995 40 164.666078 40 165.847443 41.5104365 165.847443 43.3730159L165.847443 43.3730159zM156.612875 40L156.612875 46.7460317M143.420635 40L143.420635 46.7460317M139.462963 40L139.462963 46.7460317M120.988536 43.3730159C120.988536 45.2355952 119.807171 46.7460317 118.350088 46.7460317 116.893005 46.7460317 115.71164 45.2355952 115.71164 43.3730159 115.71164 41.5104365 116.893005 40 118.350088 40 119.807171 40 120.988536 41.5104365 120.988536 43.3730159L120.988536 43.3730159zM134.180776 43.3730159C134.180776 45.2355952 132.999411 46.7460317 131.542328 46.7460317 130.085245 46.7460317 128.90388 45.2355952 128.90388 43.3730159 128.90388 41.5104365 130.085245 40 131.542328 40 132.999411 40 134.180776 41.5104365 134.180776 43.3730159L134.180776 43.3730159zM124.946208 40L124.946208 46.7460317M89.3218695 43.3730159C89.3218695 45.2355952 88.1405044 46.7460317 86.6834215 46.7460317 85.2263386 46.7460317 84.0449735 45.2355952 84.0449735 43.3730159 84.0449735 41.5104365 85.2263386 40 86.6834215 40 88.1405044 40 89.3218695 41.5104365 89.3218695 43.3730159L89.3218695 43.3730159zM102.514109 43.3730159C102.514109 45.2355952 101.332744 46.7460317 99.8756614 46.7460317 98.4185785 46.7460317 97.2372134 45.2355952 97.2372134 43.3730159 97.2372134 41.5104365 98.4185785 40 99.8756614 40 101.332744 40 102.514109 41.5104365 102.514109 43.3730159L102.514109 43.3730159zM93.2795414 40L93.2795414 46.7460317M80.0873016 40L80.0873016 46.7460317M76.1296296 40L76.1296296 46.7460317M70.8474427 43.3730159C70.8474427 45.2355952 69.6660776 46.7460317 68.2089947 46.7460317 66.7519118 46.7460317 65.5705467 45.2355952 65.5705467 43.3730159 65.5705467 41.5104365 66.7519118 40 68.2089947 40 69.6660776 40 70.8474427 41.5104365 70.8474427 43.3730159L70.8474427 43.3730159zM61.6128748 40L61.6128748 46.7460317M215.155203 43.3730159C215.155203 45.2355952 213.973838 46.7460317 212.516755 46.7460317 211.059672 46.7460317 209.878307 45.2355952 209.878307 43.3730159 209.878307 41.5104365 211.059672 40 212.516755 40 213.973838 40 215.155203 41.5104365 215.155203 43.3730159L215.155203 43.3730159zM228.347443 43.3730159C228.347443 45.2355952 227.166078 46.7460317 225.708995 46.7460317 224.251912 46.7460317 223.070547 45.2355952 223.070547 43.3730159 223.070547 41.5104365 224.251912 40 225.708995 40 227.166078 40 228.347443 41.5104365 228.347443 43.3730159L228.347443 43.3730159zM219.112875 40L219.112875 46.7460317M205.920635 40L205.920635 46.7460317M201.962963 40L201.962963 46.7460317M247.655203 43.3730159C247.655203 45.2355952 246.473838 46.7460317 245.016755 46.7460317 243.559672 46.7460317 242.378307 45.2355952 242.378307 43.3730159 242.378307 41.5104365 243.559672 40 245.016755 40 246.473838 40 247.655203 41.5104365 247.655203 43.3730159L247.655203 43.3730159zM260.847443 43.3730159C260.847443 45.2355952 259.666078 46.7460317 258.208995 46.7460317 256.751912 46.7460317 255.570547 45.2355952 255.570547 43.3730159 255.570547 41.5104365 256.751912 40 258.208995 40 259.666078 40 260.847443 41.5104365 260.847443 43.3730159L260.847443 43.3730159zM251.612875 40L251.612875 46.7460317M238.420635 40L238.420635 46.7460317M234.462963 40L234.462963 46.7460317M170.573192 55.8730159C170.573192 57.7355952 169.391827 59.2460317 167.934744 59.2460317 166.477661 59.2460317 165.296296 57.7355952 165.296296 55.8730159 165.296296 54.0104365 166.477661 52.5 167.934744 52.5 169.391827 52.5 170.573192 54.0104365 170.573192 55.8730159L170.573192 55.8730159zM174.530864 52.5L174.530864 59.2460317M178.488536 52.5L178.488536 59.2460317M187.723104 55.8730159C187.723104 57.7355952 186.541739 59.2460317 185.084656 59.2460317 183.627573 59.2460317 182.446208 57.7355952 182.446208 55.8730159 182.446208 54.0104365 183.627573 52.5 185.084656 52.5 186.541739 52.5 187.723104 54.0104365 187.723104 55.8730159L187.723104 55.8730159zM191.680776 52.5L191.680776 59.2460317M138.906526 55.8730159C138.906526 57.7355952 137.72516 59.2460317 136.268078 59.2460317 134.810995 59.2460317 133.62963 57.7355952 133.62963 55.8730159 133.62963 54.0104365 134.810995 52.5 136.268078 52.5 137.72516 52.5 138.906526 54.0104365 138.906526 55.8730159L138.906526 55.8730159zM142.864198 52.5L142.864198 59.2460317M146.821869 52.5L146.821869 59.2460317M156.056437 55.8730159C156.056437 57.7355952 154.875072 59.2460317 153.417989 59.2460317 151.960907 59.2460317 150.779541 57.7355952 150.779541 55.8730159 150.779541 54.0104365 151.960907 52.5 153.417989 52.5 154.875072 52.5 156.056437 54.0104365 156.056437 55.8730159L156.056437 55.8730159zM160.014109 52.5L160.014109 59.2460317M107.239859 55.8730159C107.239859 57.7355952 106.058494 59.2460317 104.601411 59.2460317 103.144328 59.2460317 101.962963 57.7355952 101.962963 55.8730159 101.962963 54.0104365 103.144328 52.5 104.601411 52.5 106.058494 52.5 107.239859 54.0104365 107.239859 55.8730159L107.239859 55.8730159zM111.197531 52.5L111.197531 59.2460317M115.155203 52.5L115.155203 59.2460317M124.389771 55.8730159C124.389771 57.7355952 123.208406 59.2460317 121.751323 59.2460317 120.29424 59.2460317 119.112875 57.7355952 119.112875 55.8730159 119.112875 54.0104365 120.29424 52.5 121.751323 52.5 123.208406 52.5 124.389771 54.0104365 124.389771 55.8730159L124.389771 55.8730159zM128.347443 52.5L128.347443 59.2460317M75.5731922 55.8730159C75.5731922 57.7355952 74.3918272 59.2460317 72.9347443 59.2460317 71.4776614 59.2460317 70.2962963 57.7355952 70.2962963 55.8730159 70.2962963 54.0104365 71.4776614 52.5 72.9347443 52.5 74.3918272 52.5 75.5731922 54.0104365 75.5731922 55.8730159L75.5731922 55.8730159zM79.5308642 52.5L79.5308642 59.2460317M83.4885362 52.5L83.4885362 59.2460317M92.7231041 55.8730159C92.7231041 57.7355952 91.541739 59.2460317 90.0846561 59.2460317 88.6275732 59.2460317 87.4462081 57.7355952 87.4462081 55.8730159 87.4462081 54.0104365 88.6275732 52.5 90.0846561 52.5 91.541739 52.5 92.7231041 54.0104365 92.7231041 55.8730159L92.7231041 55.8730159zM96.680776 52.5L96.680776 59.2460317M47.8641975 52.5L47.8641975 59.2460317M51.8218695 52.5L51.8218695 59.2460317M61.0564374 55.8730159C61.0564374 57.7355952 59.8750723 59.2460317 58.4179894 59.2460317 56.9609065 59.2460317 55.7795414 57.7355952 55.7795414 55.8730159 55.7795414 54.0104365 56.9609065 52.5 58.4179894 52.5 59.8750723 52.5 61.0564374 54.0104365 61.0564374 55.8730159L61.0564374 55.8730159zM65.0141093 52.5L65.0141093 59.2460317M202.239859 55.8730159C202.239859 57.7355952 201.058494 59.2460317 199.601411 59.2460317 198.144328 59.2460317 196.962963 57.7355952 196.962963 55.8730159 196.962963 54.0104365 198.144328 52.5 199.601411 52.5 201.058494 52.5 202.239859 54.0104365 202.239859 55.8730159L202.239859 55.8730159zM206.197531 52.5L206.197531 59.2460317M210.155203 52.5L210.155203 59.2460317M219.389771 55.8730159C219.389771 57.7355952 218.208406 59.2460317 216.751323 59.2460317 215.29424 59.2460317 214.112875 57.7355952 214.112875 55.8730159 214.112875 54.0104365 215.29424 52.5 216.751323 52.5 218.208406 52.5 219.389771 54.0104365 219.389771 55.8730159L219.389771 55.8730159zM223.347443 52.5L223.347443 59.2460317M233.906526 55.8730159C233.906526 57.7355952 232.72516 59.2460317 231.268078 59.2460317 229.810995 59.2460317 228.62963 57.7355952 228.62963 55.8730159 228.62963 54.0104365 229.810995 52.5 231.268078 52.5 232.72516 52.5 233.906526 54.0104365 233.906526 55.8730159L233.906526 55.8730159zM237.864198 52.5L237.864198 59.2460317M241.821869 52.5L241.821869 59.2460317M264.723104 55.3730159C264.723104 57.2355952 263.541739 58.7460317 262.084656 58.7460317 260.627573 58.7460317 259.446208 57.2355952 259.446208 55.3730159 259.446208 53.5104365 260.627573 52 262.084656 52 263.541739 52 264.723104 53.5104365 264.723104 55.3730159L264.723104 55.3730159zM250.723104 55.3730159C250.723104 57.2355952 249.541739 58.7460317 248.084656 58.7460317 246.627573 58.7460317 245.446208 57.2355952 245.446208 55.3730159 245.446208 53.5104365 246.627573 52 248.084656 52 249.541739 52 250.723104 53.5104365 250.723104 55.3730159L250.723104 55.3730159zM254.680776 52L254.680776 58.7460317M186.821869 68.3730159C186.821869 70.2355952 185.640504 71.7460317 184.183422 71.7460317 182.726339 71.7460317 181.544974 70.2355952 181.544974 68.3730159 181.544974 66.5104365 182.726339 65 184.183422 65 185.640504 65 186.821869 66.5104365 186.821869 68.3730159L186.821869 68.3730159zM200.014109 68.3730159C200.014109 70.2355952 198.832744 71.7460317 197.375661 71.7460317 195.918578 71.7460317 194.737213 70.2355952 194.737213 68.3730159 194.737213 66.5104365 195.918578 65 197.375661 65 198.832744 65 200.014109 66.5104365 200.014109 68.3730159L200.014109 68.3730159zM190.779541 65L190.779541 71.7460317M177.587302 65L177.587302 71.7460317M173.62963 65L173.62963 71.7460317M155.155203 68.3730159C155.155203 70.2355952 153.973838 71.7460317 152.516755 71.7460317 151.059672 71.7460317 149.878307 70.2355952 149.878307 68.3730159 149.878307 66.5104365 151.059672 65 152.516755 65 153.973838 65 155.155203 66.5104365 155.155203 68.3730159L155.155203 68.3730159zM168.347443 68.3730159C168.347443 70.2355952 167.166078 71.7460317 165.708995 71.7460317 164.251912 71.7460317 163.070547 70.2355952 163.070547 68.3730159 163.070547 66.5104365 164.251912 65 165.708995 65 167.166078 65 168.347443 66.5104365 168.347443 68.3730159L168.347443 68.3730159zM159.112875 65L159.112875 71.7460317M145.920635 65L145.920635 71.7460317M141.962963 65L141.962963 71.7460317M123.488536 68.3730159C123.488536 70.2355952 122.307171 71.7460317 120.850088 71.7460317 119.393005 71.7460317 118.21164 70.2355952 118.21164 68.3730159 118.21164 66.5104365 119.393005 65 120.850088 65 122.307171 65 123.488536 66.5104365 123.488536 68.3730159L123.488536 68.3730159zM136.680776 68.3730159C136.680776 70.2355952 135.499411 71.7460317 134.042328 71.7460317 132.585245 71.7460317 131.40388 70.2355952 131.40388 68.3730159 131.40388 66.5104365 132.585245 65 134.042328 65 135.499411 65 136.680776 66.5104365 136.680776 68.3730159L136.680776 68.3730159zM127.446208 65L127.446208 71.7460317M114.253968 65L114.253968 71.7460317M110.296296 65L110.296296 71.7460317M91.8218695 68.3730159C91.8218695 70.2355952 90.6405044 71.7460317 89.1834215 71.7460317 87.7263386 71.7460317 86.5449735 70.2355952 86.5449735 68.3730159 86.5449735 66.5104365 87.7263386 65 89.1834215 65 90.6405044 65 91.8218695 66.5104365 91.8218695 68.3730159L91.8218695 68.3730159zM105.014109 68.3730159C105.014109 70.2355952 103.832744 71.7460317 102.375661 71.7460317 100.918578 71.7460317 99.7372134 70.2355952 99.7372134 68.3730159 99.7372134 66.5104365 100.918578 65 102.375661 65 103.832744 65 105.014109 66.5104365 105.014109 68.3730159L105.014109 68.3730159zM95.7795414 65L95.7795414 71.7460317M82.5873016 65L82.5873016 71.7460317M78.6296296 65L78.6296296 71.7460317M60.1552028 68.3730159C60.1552028 70.2355952 58.9738377 71.7460317 57.5167549 71.7460317 56.059672 71.7460317 54.8783069 70.2355952 54.8783069 68.3730159 54.8783069 66.5104365 56.059672 65 57.5167549 65 58.9738377 65 60.1552028 66.5104365 60.1552028 68.3730159L60.1552028 68.3730159zM73.3474427 68.3730159C73.3474427 70.2355952 72.1660776 71.7460317 70.7089947 71.7460317 69.2519118 71.7460317 68.0705467 70.2355952 68.0705467 68.3730159 68.0705467 66.5104365 69.2519118 65 70.7089947 65 72.1660776 65 73.3474427 66.5104365 73.3474427 68.3730159L73.3474427 68.3730159zM64.1128748 65L64.1128748 71.7460317M50.9206349 65L50.9206349 71.7460317M46.962963 65L46.962963 71.7460317M217.655203 68.3730159C217.655203 70.2355952 216.473838 71.7460317 215.016755 71.7460317 213.559672 71.7460317 212.378307 70.2355952 212.378307 68.3730159 212.378307 66.5104365 213.559672 65 215.016755 65 216.473838 65 217.655203 66.5104365 217.655203 68.3730159L217.655203 68.3730159zM230.847443 68.3730159C230.847443 70.2355952 229.666078 71.7460317 228.208995 71.7460317 226.751912 71.7460317 225.570547 70.2355952 225.570547 68.3730159 225.570547 66.5104365 226.751912 65 228.208995 65 229.666078 65 230.847443 66.5104365 230.847443 68.3730159L230.847443 68.3730159zM221.612875 65L221.612875 71.7460317M208.420635 65L208.420635 71.7460317M204.462963 65L204.462963 71.7460317M250.155203 68.3730159C250.155203 70.2355952 248.973838 71.7460317 247.516755 71.7460317 246.059672 71.7460317 244.878307 70.2355952 244.878307 68.3730159 244.878307 66.5104365 246.059672 65 247.516755 65 248.973838 65 250.155203 66.5104365 250.155203 68.3730159L250.155203 68.3730159zM263.347443 68.3730159C263.347443 70.2355952 262.166078 71.7460317 260.708995 71.7460317 259.251912 71.7460317 258.070547 70.2355952 258.070547 68.3730159 258.070547 66.5104365 259.251912 65 260.708995 65 262.166078 65 263.347443 66.5104365 263.347443 68.3730159L263.347443 68.3730159zM254.112875 65L254.112875 71.7460317M240.920635 65L240.920635 71.7460317M236.962963 65L236.962963 71.7460317M165.573192 80.8730159C165.573192 82.7355952 164.391827 84.2460317 162.934744 84.2460317 161.477661 84.2460317 160.296296 82.7355952 160.296296 80.8730159 160.296296 79.0104365 161.477661 77.5 162.934744 77.5 164.391827 77.5 165.573192 79.0104365 165.573192 80.8730159L165.573192 80.8730159zM169.530864 77.5L169.530864 84.2460317M173.488536 77.5L173.488536 84.2460317M182.723104 80.8730159C182.723104 82.7355952 181.541739 84.2460317 180.084656 84.2460317 178.627573 84.2460317 177.446208 82.7355952 177.446208 80.8730159 177.446208 79.0104365 178.627573 77.5 180.084656 77.5 181.541739 77.5 182.723104 79.0104365 182.723104 80.8730159L182.723104 80.8730159zM186.680776 77.5L186.680776 84.2460317M133.906526 80.8730159C133.906526 82.7355952 132.72516 84.2460317 131.268078 84.2460317 129.810995 84.2460317 128.62963 82.7355952 128.62963 80.8730159 128.62963 79.0104365 129.810995 77.5 131.268078 77.5 132.72516 77.5 133.906526 79.0104365 133.906526 80.8730159L133.906526 80.8730159zM137.864198 77.5L137.864198 84.2460317M141.821869 77.5L141.821869 84.2460317M151.056437 80.8730159C151.056437 82.7355952 149.875072 84.2460317 148.417989 84.2460317 146.960907 84.2460317 145.779541 82.7355952 145.779541 80.8730159 145.779541 79.0104365 146.960907 77.5 148.417989 77.5 149.875072 77.5 151.056437 79.0104365 151.056437 80.8730159L151.056437 80.8730159zM155.014109 77.5L155.014109 84.2460317M102.239859 80.8730159C102.239859 82.7355952 101.058494 84.2460317 99.6014109 84.2460317 98.144328 84.2460317 96.962963 82.7355952 96.962963 80.8730159 96.962963 79.0104365 98.144328 77.5 99.6014109 77.5 101.058494 77.5 102.239859 79.0104365 102.239859 80.8730159L102.239859 80.8730159zM106.197531 77.5L106.197531 84.2460317M110.155203 77.5L110.155203 84.2460317M119.389771 80.8730159C119.389771 82.7355952 118.208406 84.2460317 116.751323 84.2460317 115.29424 84.2460317 114.112875 82.7355952 114.112875 80.8730159 114.112875 79.0104365 115.29424 77.5 116.751323 77.5 118.208406 77.5 119.389771 79.0104365 119.389771 80.8730159L119.389771 80.8730159zM123.347443 77.5L123.347443 84.2460317M70.5731922 80.8730159C70.5731922 82.7355952 69.3918272 84.2460317 67.9347443 84.2460317 66.4776614 84.2460317 65.2962963 82.7355952 65.2962963 80.8730159 65.2962963 79.0104365 66.4776614 77.5 67.9347443 77.5 69.3918272 77.5 70.5731922 79.0104365 70.5731922 80.8730159L70.5731922 80.8730159zM74.5308642 77.5L74.5308642 84.2460317M78.4885362 77.5L78.4885362 84.2460317M87.7231041 80.8730159C87.7231041 82.7355952 86.541739 84.2460317 85.0846561 84.2460317 83.6275732 84.2460317 82.4462081 82.7355952 82.4462081 80.8730159 82.4462081 79.0104365 83.6275732 77.5 85.0846561 77.5 86.541739 77.5 87.7231041 79.0104365 87.7231041 80.8730159L87.7231041 80.8730159zM91.680776 77.5L91.680776 84.2460317M42.8641975 77.5L42.8641975 84.2460317M46.8218695 77.5L46.8218695 84.2460317M56.0564374 80.8730159C56.0564374 82.7355952 54.8750723 84.2460317 53.4179894 84.2460317 51.9609065 84.2460317 50.7795414 82.7355952 50.7795414 80.8730159 50.7795414 79.0104365 51.9609065 77.5 53.4179894 77.5 54.8750723 77.5 56.0564374 79.0104365 56.0564374 80.8730159L56.0564374 80.8730159zM60.0141093 77.5L60.0141093 84.2460317M197.239859 80.8730159C197.239859 82.7355952 196.058494 84.2460317 194.601411 84.2460317 193.144328 84.2460317 191.962963 82.7355952 191.962963 80.8730159 191.962963 79.0104365 193.144328 77.5 194.601411 77.5 196.058494 77.5 197.239859 79.0104365 197.239859 80.8730159L197.239859 80.8730159zM201.197531 77.5L201.197531 84.2460317M205.155203 77.5L205.155203 84.2460317M214.389771 80.8730159C214.389771 82.7355952 213.208406 84.2460317 211.751323 84.2460317 210.29424 84.2460317 209.112875 82.7355952 209.112875 80.8730159 209.112875 79.0104365 210.29424 77.5 211.751323 77.5 213.208406 77.5 214.389771 79.0104365 214.389771 80.8730159L214.389771 80.8730159zM218.347443 77.5L218.347443 84.2460317M228.906526 80.8730159C228.906526 82.7355952 227.72516 84.2460317 226.268078 84.2460317 224.810995 84.2460317 223.62963 82.7355952 223.62963 80.8730159 223.62963 79.0104365 224.810995 77.5 226.268078 77.5 227.72516 77.5 228.906526 79.0104365 228.906526 80.8730159L228.906526 80.8730159zM232.864198 77.5L232.864198 84.2460317M236.821869 77.5L236.821869 84.2460317M246.056437 80.8730159C246.056437 82.7355952 244.875072 84.2460317 243.417989 84.2460317 241.960907 84.2460317 240.779541 82.7355952 240.779541 80.8730159 240.779541 79.0104365 241.960907 77.5 243.417989 77.5 244.875072 77.5 246.056437 79.0104365 246.056437 80.8730159L246.056437 80.8730159zM250.014109 77.5L250.014109 84.2460317M260.573192 80.8730159C260.573192 82.7355952 259.391827 84.2460317 257.934744 84.2460317 256.477661 84.2460317 255.296296 82.7355952 255.296296 80.8730159 255.296296 79.0104365 256.477661 77.5 257.934744 77.5 259.391827 77.5 260.573192 79.0104365 260.573192 80.8730159L260.573192 80.8730159zM264.530864 77.5L264.530864 84.2460317M180.988536 93.3730159C180.988536 95.2355952 179.807171 96.7460317 178.350088 96.7460317 176.893005 96.7460317 175.71164 95.2355952 175.71164 93.3730159 175.71164 91.5104365 176.893005 90 178.350088 90 179.807171 90 180.988536 91.5104365 180.988536 93.3730159L180.988536 93.3730159zM194.180776 93.3730159C194.180776 95.2355952 192.999411 96.7460317 191.542328 96.7460317 190.085245 96.7460317 188.90388 95.2355952 188.90388 93.3730159 188.90388 91.5104365 190.085245 90 191.542328 90 192.999411 90 194.180776 91.5104365 194.180776 93.3730159L194.180776 93.3730159zM184.946208 90L184.946208 96.7460317M171.753968 90L171.753968 96.7460317M167.796296 90L167.796296 96.7460317M149.321869 93.3730159C149.321869 95.2355952 148.140504 96.7460317 146.683422 96.7460317 145.226339 96.7460317 144.044974 95.2355952 144.044974 93.3730159 144.044974 91.5104365 145.226339 90 146.683422 90 148.140504 90 149.321869 91.5104365 149.321869 93.3730159L149.321869 93.3730159zM162.514109 93.3730159C162.514109 95.2355952 161.332744 96.7460317 159.875661 96.7460317 158.418578 96.7460317 157.237213 95.2355952 157.237213 93.3730159 157.237213 91.5104365 158.418578 90 159.875661 90 161.332744 90 162.514109 91.5104365 162.514109 93.3730159L162.514109 93.3730159zM153.279541 90L153.279541 96.7460317M140.087302 90L140.087302 96.7460317M136.12963 90L136.12963 96.7460317M117.655203 93.3730159C117.655203 95.2355952 116.473838 96.7460317 115.016755 96.7460317 113.559672 96.7460317 112.378307 95.2355952 112.378307 93.3730159 112.378307 91.5104365 113.559672 90 115.016755 90 116.473838 90 117.655203 91.5104365 117.655203 93.3730159L117.655203 93.3730159zM130.847443 93.3730159C130.847443 95.2355952 129.666078 96.7460317 128.208995 96.7460317 126.751912 96.7460317 125.570547 95.2355952 125.570547 93.3730159 125.570547 91.5104365 126.751912 90 128.208995 90 129.666078 90 130.847443 91.5104365 130.847443 93.3730159L130.847443 93.3730159zM121.612875 90L121.612875 96.7460317M108.420635 90L108.420635 96.7460317M104.462963 90L104.462963 96.7460317M85.9885362 93.3730159C85.9885362 95.2355952 84.8071711 96.7460317 83.3500882 96.7460317 81.8930053 96.7460317 80.7116402 95.2355952 80.7116402 93.3730159 80.7116402 91.5104365 81.8930053 90 83.3500882 90 84.8071711 90 85.9885362 91.5104365 85.9885362 93.3730159L85.9885362 93.3730159zM99.180776 93.3730159C99.180776 95.2355952 97.9994109 96.7460317 96.542328 96.7460317 95.0852451 96.7460317 93.9038801 95.2355952 93.9038801 93.3730159 93.9038801 91.5104365 95.0852451 90 96.542328 90 97.9994109 90 99.180776 91.5104365 99.180776 93.3730159L99.180776 93.3730159zM89.9462081 90L89.9462081 96.7460317M76.7539683 90L76.7539683 96.7460317M72.7962963 90L72.7962963 96.7460317M54.3218695 93.3730159C54.3218695 95.2355952 53.1405044 96.7460317 51.6834215 96.7460317 50.2263386 96.7460317 49.0449735 95.2355952 49.0449735 93.3730159 49.0449735 91.5104365 50.2263386 90 51.6834215 90 53.1405044 90 54.3218695 91.5104365 54.3218695 93.3730159L54.3218695 93.3730159zM67.5141093 93.3730159C67.5141093 95.2355952 66.3327443 96.7460317 64.8756614 96.7460317 63.4185785 96.7460317 62.2372134 95.2355952 62.2372134 93.3730159 62.2372134 91.5104365 63.4185785 90 64.8756614 90 66.3327443 90 67.5141093 91.5104365 67.5141093 93.3730159L67.5141093 93.3730159zM58.2795414 90L58.2795414 96.7460317M45.0873016 90L45.0873016 96.7460317M41.1296296 90L41.1296296 96.7460317M211.821869 93.3730159C211.821869 95.2355952 210.640504 96.7460317 209.183422 96.7460317 207.726339 96.7460317 206.544974 95.2355952 206.544974 93.3730159 206.544974 91.5104365 207.726339 90 209.183422 90 210.640504 90 211.821869 91.5104365 211.821869 93.3730159L211.821869 93.3730159zM225.014109 93.3730159C225.014109 95.2355952 223.832744 96.7460317 222.375661 96.7460317 220.918578 96.7460317 219.737213 95.2355952 219.737213 93.3730159 219.737213 91.5104365 220.918578 90 222.375661 90 223.832744 90 225.014109 91.5104365 225.014109 93.3730159L225.014109 93.3730159zM215.779541 90L215.779541 96.7460317M202.587302 90L202.587302 96.7460317M198.62963 90L198.62963 96.7460317M244.321869 93.3730159C244.321869 95.2355952 243.140504 96.7460317 241.683422 96.7460317 240.226339 96.7460317 239.044974 95.2355952 239.044974 93.3730159 239.044974 91.5104365 240.226339 90 241.683422 90 243.140504 90 244.321869 91.5104365 244.321869 93.3730159L244.321869 93.3730159zM257.514109 93.3730159C257.514109 95.2355952 256.332744 96.7460317 254.875661 96.7460317 253.418578 96.7460317 252.237213 95.2355952 252.237213 93.3730159 252.237213 91.5104365 253.418578 90 254.875661 90 256.332744 90 257.514109 91.5104365 257.514109 93.3730159L257.514109 93.3730159zM248.279541 90L248.279541 96.7460317M235.087302 90L235.087302 96.7460317M231.12963 90L231.12963 96.7460317M275.988536 93.3730159C275.988536 95.2355952 274.807171 96.7460317 273.350088 96.7460317 271.893005 96.7460317 270.71164 95.2355952 270.71164 93.3730159 270.71164 91.5104365 271.893005 90 273.350088 90 274.807171 90 275.988536 91.5104365 275.988536 93.3730159L275.988536 93.3730159zM279.946208 90L279.946208 96.7460317M266.753968 90L266.753968 96.7460317M262.796296 90L262.796296 96.7460317M170.573192 105.873016C170.573192 107.735595 169.391827 109.246032 167.934744 109.246032 166.477661 109.246032 165.296296 107.735595 165.296296 105.873016 165.296296 104.010437 166.477661 102.5 167.934744 102.5 169.391827 102.5 170.573192 104.010437 170.573192 105.873016L170.573192 105.873016zM174.530864 102.5L174.530864 109.246032M178.488536 102.5L178.488536 109.246032M187.723104 105.873016C187.723104 107.735595 186.541739 109.246032 185.084656 109.246032 183.627573 109.246032 182.446208 107.735595 182.446208 105.873016 182.446208 104.010437 183.627573 102.5 185.084656 102.5 186.541739 102.5 187.723104 104.010437 187.723104 105.873016L187.723104 105.873016zM191.680776 102.5L191.680776 109.246032M138.906526 105.873016C138.906526 107.735595 137.72516 109.246032 136.268078 109.246032 134.810995 109.246032 133.62963 107.735595 133.62963 105.873016 133.62963 104.010437 134.810995 102.5 136.268078 102.5 137.72516 102.5 138.906526 104.010437 138.906526 105.873016L138.906526 105.873016zM142.864198 102.5L142.864198 109.246032M146.821869 102.5L146.821869 109.246032M156.056437 105.873016C156.056437 107.735595 154.875072 109.246032 153.417989 109.246032 151.960907 109.246032 150.779541 107.735595 150.779541 105.873016 150.779541 104.010437 151.960907 102.5 153.417989 102.5 154.875072 102.5 156.056437 104.010437 156.056437 105.873016L156.056437 105.873016zM160.014109 102.5L160.014109 109.246032M107.239859 105.873016C107.239859 107.735595 106.058494 109.246032 104.601411 109.246032 103.144328 109.246032 101.962963 107.735595 101.962963 105.873016 101.962963 104.010437 103.144328 102.5 104.601411 102.5 106.058494 102.5 107.239859 104.010437 107.239859 105.873016L107.239859 105.873016zM111.197531 102.5L111.197531 109.246032M115.155203 102.5L115.155203 109.246032M124.389771 105.873016C124.389771 107.735595 123.208406 109.246032 121.751323 109.246032 120.29424 109.246032 119.112875 107.735595 119.112875 105.873016 119.112875 104.010437 120.29424 102.5 121.751323 102.5 123.208406 102.5 124.389771 104.010437 124.389771 105.873016L124.389771 105.873016zM128.347443 102.5L128.347443 109.246032M75.5731922 105.873016C75.5731922 107.735595 74.3918272 109.246032 72.9347443 109.246032 71.4776614 109.246032 70.2962963 107.735595 70.2962963 105.873016 70.2962963 104.010437 71.4776614 102.5 72.9347443 102.5 74.3918272 102.5 75.5731922 104.010437 75.5731922 105.873016L75.5731922 105.873016zM79.5308642 102.5L79.5308642 109.246032M83.4885362 102.5L83.4885362 109.246032M92.7231041 105.873016C92.7231041 107.735595 91.541739 109.246032 90.0846561 109.246032 88.6275732 109.246032 87.4462081 107.735595 87.4462081 105.873016 87.4462081 104.010437 88.6275732 102.5 90.0846561 102.5 91.541739 102.5 92.7231041 104.010437 92.7231041 105.873016L92.7231041 105.873016zM96.680776 102.5L96.680776 109.246032M43.9065256 105.873016C43.9065256 107.735595 42.7251605 109.246032 41.2680776 109.246032 39.8109947 109.246032 38.6296296 107.735595 38.6296296 105.873016 38.6296296 104.010437 39.8109947 102.5 41.2680776 102.5 42.7251605 102.5 43.9065256 104.010437 43.9065256 105.873016L43.9065256 105.873016zM47.8641975 102.5L47.8641975 109.246032M51.8218695 102.5L51.8218695 109.246032M61.0564374 105.873016C61.0564374 107.735595 59.8750723 109.246032 58.4179894 109.246032 56.9609065 109.246032 55.7795414 107.735595 55.7795414 105.873016 55.7795414 104.010437 56.9609065 102.5 58.4179894 102.5 59.8750723 102.5 61.0564374 104.010437 61.0564374 105.873016L61.0564374 105.873016zM65.0141093 102.5L65.0141093 109.246032M20.1552028 102.5L20.1552028 109.246032M29.3897707 105.873016C29.3897707 107.735595 28.2084056 109.246032 26.7513228 109.246032 25.2942399 109.246032 24.1128748 107.735595 24.1128748 105.873016 24.1128748 104.010437 25.2942399 102.5 26.7513228 102.5 28.2084056 102.5 29.3897707 104.010437 29.3897707 105.873016L29.3897707 105.873016zM33.3474427 102.5L33.3474427 109.246032M202.239859 105.873016C202.239859 107.735595 201.058494 109.246032 199.601411 109.246032 198.144328 109.246032 196.962963 107.735595 196.962963 105.873016 196.962963 104.010437 198.144328 102.5 199.601411 102.5 201.058494 102.5 202.239859 104.010437 202.239859 105.873016L202.239859 105.873016zM206.197531 102.5L206.197531 109.246032M210.155203 102.5L210.155203 109.246032M219.389771 105.873016C219.389771 107.735595 218.208406 109.246032 216.751323 109.246032 215.29424 109.246032 214.112875 107.735595 214.112875 105.873016 214.112875 104.010437 215.29424 102.5 216.751323 102.5 218.208406 102.5 219.389771 104.010437 219.389771 105.873016L219.389771 105.873016zM223.347443 102.5L223.347443 109.246032M233.906526 105.873016C233.906526 107.735595 232.72516 109.246032 231.268078 109.246032 229.810995 109.246032 228.62963 107.735595 228.62963 105.873016 228.62963 104.010437 229.810995 102.5 231.268078 102.5 232.72516 102.5 233.906526 104.010437 233.906526 105.873016L233.906526 105.873016zM237.864198 102.5L237.864198 109.246032M241.821869 102.5L241.821869 109.246032M251.056437 105.873016C251.056437 107.735595 249.875072 109.246032 248.417989 109.246032 246.960907 109.246032 245.779541 107.735595 245.779541 105.873016 245.779541 104.010437 246.960907 102.5 248.417989 102.5 249.875072 102.5 251.056437 104.010437 251.056437 105.873016L251.056437 105.873016zM255.014109 102.5L255.014109 109.246032M265.573192 105.873016C265.573192 107.735595 264.391827 109.246032 262.934744 109.246032 261.477661 109.246032 260.296296 107.735595 260.296296 105.873016 260.296296 104.010437 261.477661 102.5 262.934744 102.5 264.391827 102.5 265.573192 104.010437 265.573192 105.873016L265.573192 105.873016zM269.530864 102.5L269.530864 109.246032M273.488536 102.5L273.488536 109.246032M282.723104 105.873016C282.723104 107.735595 281.541739 109.246032 280.084656 109.246032 278.627573 109.246032 277.446208 107.735595 277.446208 105.873016 277.446208 104.010437 278.627573 102.5 280.084656 102.5 281.541739 102.5 282.723104 104.010437 282.723104 105.873016L282.723104 105.873016zM286.680776 102.5L286.680776 109.246032M195.988536 118.373016C195.988536 120.235595 194.807171 121.746032 193.350088 121.746032 191.893005 121.746032 190.71164 120.235595 190.71164 118.373016 190.71164 116.510437 191.893005 115 193.350088 115 194.807171 115 195.988536 116.510437 195.988536 118.373016L195.988536 118.373016zM209.180776 118.373016C209.180776 120.235595 207.999411 121.746032 206.542328 121.746032 205.085245 121.746032 203.90388 120.235595 203.90388 118.373016 203.90388 116.510437 205.085245 115 206.542328 115 207.999411 115 209.180776 116.510437 209.180776 118.373016L209.180776 118.373016zM199.946208 115L199.946208 121.746032M186.753968 115L186.753968 121.746032M182.796296 115L182.796296 121.746032M164.321869 118.373016C164.321869 120.235595 163.140504 121.746032 161.683422 121.746032 160.226339 121.746032 159.044974 120.235595 159.044974 118.373016 159.044974 116.510437 160.226339 115 161.683422 115 163.140504 115 164.321869 116.510437 164.321869 118.373016L164.321869 118.373016zM177.514109 118.373016C177.514109 120.235595 176.332744 121.746032 174.875661 121.746032 173.418578 121.746032 172.237213 120.235595 172.237213 118.373016 172.237213 116.510437 173.418578 115 174.875661 115 176.332744 115 177.514109 116.510437 177.514109 118.373016L177.514109 118.373016zM168.279541 115L168.279541 121.746032M155.087302 115L155.087302 121.746032M151.12963 115L151.12963 121.746032M132.655203 118.373016C132.655203 120.235595 131.473838 121.746032 130.016755 121.746032 128.559672 121.746032 127.378307 120.235595 127.378307 118.373016 127.378307 116.510437 128.559672 115 130.016755 115 131.473838 115 132.655203 116.510437 132.655203 118.373016L132.655203 118.373016zM145.847443 118.373016C145.847443 120.235595 144.666078 121.746032 143.208995 121.746032 141.751912 121.746032 140.570547 120.235595 140.570547 118.373016 140.570547 116.510437 141.751912 115 143.208995 115 144.666078 115 145.847443 116.510437 145.847443 118.373016L145.847443 118.373016zM136.612875 115L136.612875 121.746032M123.420635 115L123.420635 121.746032M119.462963 115L119.462963 121.746032M100.988536 118.373016C100.988536 120.235595 99.8071711 121.746032 98.3500882 121.746032 96.8930053 121.746032 95.7116402 120.235595 95.7116402 118.373016 95.7116402 116.510437 96.8930053 115 98.3500882 115 99.8071711 115 100.988536 116.510437 100.988536 118.373016L100.988536 118.373016zM114.180776 118.373016C114.180776 120.235595 112.999411 121.746032 111.542328 121.746032 110.085245 121.746032 108.90388 120.235595 108.90388 118.373016 108.90388 116.510437 110.085245 115 111.542328 115 112.999411 115 114.180776 116.510437 114.180776 118.373016L114.180776 118.373016zM104.946208 115L104.946208 121.746032M91.7539683 115L91.7539683 121.746032M87.7962963 115L87.7962963 121.746032M69.3218695 118.373016C69.3218695 120.235595 68.1405044 121.746032 66.6834215 121.746032 65.2263386 121.746032 64.0449735 120.235595 64.0449735 118.373016 64.0449735 116.510437 65.2263386 115 66.6834215 115 68.1405044 115 69.3218695 116.510437 69.3218695 118.373016L69.3218695 118.373016zM82.5141093 118.373016C82.5141093 120.235595 81.3327443 121.746032 79.8756614 121.746032 78.4185785 121.746032 77.2372134 120.235595 77.2372134 118.373016 77.2372134 116.510437 78.4185785 115 79.8756614 115 81.3327443 115 82.5141093 116.510437 82.5141093 118.373016L82.5141093 118.373016zM73.2795414 115L73.2795414 121.746032M60.0873016 115L60.0873016 121.746032M56.1296296 115L56.1296296 121.746032M37.6552028 118.373016C37.6552028 120.235595 36.4738377 121.746032 35.0167549 121.746032 33.559672 121.746032 32.3783069 120.235595 32.3783069 118.373016 32.3783069 116.510437 33.559672 115 35.0167549 115 36.4738377 115 37.6552028 116.510437 37.6552028 118.373016L37.6552028 118.373016zM50.8474427 118.373016C50.8474427 120.235595 49.6660776 121.746032 48.2089947 121.746032 46.7519118 121.746032 45.5705467 120.235595 45.5705467 118.373016 45.5705467 116.510437 46.7519118 115 48.2089947 115 49.6660776 115 50.8474427 116.510437 50.8474427 118.373016L50.8474427 118.373016zM41.6128748 115L41.6128748 121.746032M28.4206349 115L28.4206349 121.746032M24.462963 115L24.462963 121.746032M19.180776 118.373016C19.180776 120.235595 17.9994109 121.746032 16.542328 121.746032 15.0852451 121.746032 13.9038801 120.235595 13.9038801 118.373016 13.9038801 116.510437 15.0852451 115 16.542328 115 17.9994109 115 19.180776 116.510437 19.180776 118.373016L19.180776 118.373016zM9.94620811 115L9.94620811 121.746032M226.821869 118.373016C226.821869 120.235595 225.640504 121.746032 224.183422 121.746032 222.726339 121.746032 221.544974 120.235595 221.544974 118.373016 221.544974 116.510437 222.726339 115 224.183422 115 225.640504 115 226.821869 116.510437 226.821869 118.373016L226.821869 118.373016zM240.014109 118.373016C240.014109 120.235595 238.832744 121.746032 237.375661 121.746032 235.918578 121.746032 234.737213 120.235595 234.737213 118.373016 234.737213 116.510437 235.918578 115 237.375661 115 238.832744 115 240.014109 116.510437 240.014109 118.373016L240.014109 118.373016zM230.779541 115L230.779541 121.746032M217.587302 115L217.587302 121.746032M213.62963 115L213.62963 121.746032M259.321869 118.373016C259.321869 120.235595 258.140504 121.746032 256.683422 121.746032 255.226339 121.746032 254.044974 120.235595 254.044974 118.373016 254.044974 116.510437 255.226339 115 256.683422 115 258.140504 115 259.321869 116.510437 259.321869 118.373016L259.321869 118.373016zM272.514109 118.373016C272.514109 120.235595 271.332744 121.746032 269.875661 121.746032 268.418578 121.746032 267.237213 120.235595 267.237213 118.373016 267.237213 116.510437 268.418578 115 269.875661 115 271.332744 115 272.514109 116.510437 272.514109 118.373016L272.514109 118.373016zM263.279541 115L263.279541 121.746032M250.087302 115L250.087302 121.746032M246.12963 115L246.12963 121.746032M290.988536 118.373016C290.988536 120.235595 289.807171 121.746032 288.350088 121.746032 286.893005 121.746032 285.71164 120.235595 285.71164 118.373016 285.71164 116.510437 286.893005 115 288.350088 115 289.807171 115 290.988536 116.510437 290.988536 118.373016L290.988536 118.373016zM304.180776 118.373016C304.180776 120.235595 302.999411 121.746032 301.542328 121.746032 300.085245 121.746032 298.90388 120.235595 298.90388 118.373016 298.90388 116.510437 300.085245 115 301.542328 115 302.999411 115 304.180776 116.510437 304.180776 118.373016L304.180776 118.373016zM294.946208 115L294.946208 121.746032M281.753968 115L281.753968 121.746032M277.796296 115L277.796296 121.746032M182.239859 130.873016C182.239859 132.735595 181.058494 134.246032 179.601411 134.246032 178.144328 134.246032 176.962963 132.735595 176.962963 130.873016 176.962963 129.010437 178.144328 127.5 179.601411 127.5 181.058494 127.5 182.239859 129.010437 182.239859 130.873016L182.239859 130.873016zM186.197531 127.5L186.197531 134.246032M190.155203 127.5L190.155203 134.246032M199.389771 130.873016C199.389771 132.735595 198.208406 134.246032 196.751323 134.246032 195.29424 134.246032 194.112875 132.735595 194.112875 130.873016 194.112875 129.010437 195.29424 127.5 196.751323 127.5 198.208406 127.5 199.389771 129.010437 199.389771 130.873016L199.389771 130.873016zM203.347443 127.5L203.347443 134.246032M150.573192 130.873016C150.573192 132.735595 149.391827 134.246032 147.934744 134.246032 146.477661 134.246032 145.296296 132.735595 145.296296 130.873016 145.296296 129.010437 146.477661 127.5 147.934744 127.5 149.391827 127.5 150.573192 129.010437 150.573192 130.873016L150.573192 130.873016zM154.530864 127.5L154.530864 134.246032M158.488536 127.5L158.488536 134.246032M167.723104 130.873016C167.723104 132.735595 166.541739 134.246032 165.084656 134.246032 163.627573 134.246032 162.446208 132.735595 162.446208 130.873016 162.446208 129.010437 163.627573 127.5 165.084656 127.5 166.541739 127.5 167.723104 129.010437 167.723104 130.873016L167.723104 130.873016zM171.680776 127.5L171.680776 134.246032M118.906526 130.873016C118.906526 132.735595 117.72516 134.246032 116.268078 134.246032 114.810995 134.246032 113.62963 132.735595 113.62963 130.873016 113.62963 129.010437 114.810995 127.5 116.268078 127.5 117.72516 127.5 118.906526 129.010437 118.906526 130.873016L118.906526 130.873016zM122.864198 127.5L122.864198 134.246032M126.821869 127.5L126.821869 134.246032M136.056437 130.873016C136.056437 132.735595 134.875072 134.246032 133.417989 134.246032 131.960907 134.246032 130.779541 132.735595 130.779541 130.873016 130.779541 129.010437 131.960907 127.5 133.417989 127.5 134.875072 127.5 136.056437 129.010437 136.056437 130.873016L136.056437 130.873016zM140.014109 127.5L140.014109 134.246032M87.2398589 130.873016C87.2398589 132.735595 86.0584938 134.246032 84.6014109 134.246032 83.144328 134.246032 81.962963 132.735595 81.962963 130.873016 81.962963 129.010437 83.144328 127.5 84.6014109 127.5 86.0584938 127.5 87.2398589 129.010437 87.2398589 130.873016L87.2398589 130.873016zM91.1975309 127.5L91.1975309 134.246032M95.1552028 127.5L95.1552028 134.246032M104.389771 130.873016C104.389771 132.735595 103.208406 134.246032 101.751323 134.246032 100.29424 134.246032 99.1128748 132.735595 99.1128748 130.873016 99.1128748 129.010437 100.29424 127.5 101.751323 127.5 103.208406 127.5 104.389771 129.010437 104.389771 130.873016L104.389771 130.873016zM108.347443 127.5L108.347443 134.246032M55.5731922 130.873016C55.5731922 132.735595 54.3918272 134.246032 52.9347443 134.246032 51.4776614 134.246032 50.2962963 132.735595 50.2962963 130.873016 50.2962963 129.010437 51.4776614 127.5 52.9347443 127.5 54.3918272 127.5 55.5731922 129.010437 55.5731922 130.873016L55.5731922 130.873016zM59.5308642 127.5L59.5308642 134.246032M63.4885362 127.5L63.4885362 134.246032M72.7231041 130.873016C72.7231041 132.735595 71.541739 134.246032 70.0846561 134.246032 68.6275732 134.246032 67.4462081 132.735595 67.4462081 130.873016 67.4462081 129.010437 68.6275732 127.5 70.0846561 127.5 71.541739 127.5 72.7231041 129.010437 72.7231041 130.873016L72.7231041 130.873016zM76.680776 127.5L76.680776 134.246032M23.9065256 130.873016C23.9065256 132.735595 22.7251605 134.246032 21.2680776 134.246032 19.8109947 134.246032 18.6296296 132.735595 18.6296296 130.873016 18.6296296 129.010437 19.8109947 127.5 21.2680776 127.5 22.7251605 127.5 23.9065256 129.010437 23.9065256 130.873016L23.9065256 130.873016zM27.8641975 127.5L27.8641975 134.246032M31.8218695 127.5L31.8218695 134.246032M41.0564374 130.873016C41.0564374 132.735595 39.8750723 134.246032 38.4179894 134.246032 36.9609065 134.246032 35.7795414 132.735595 35.7795414 130.873016 35.7795414 129.010437 36.9609065 127.5 38.4179894 127.5 39.8750723 127.5 41.0564374 129.010437 41.0564374 130.873016L41.0564374 130.873016zM45.0141093 127.5L45.0141093 134.246032M9.38977072 130.873016C9.38977072 132.735595 8.20840564 134.246032 6.75132275 134.246032 5.29423986 134.246032 4.11287478 132.735595 4.11287478 130.873016 4.11287478 129.010437 5.29423986 127.5 6.75132275 127.5 8.20840564 127.5 9.38977072 129.010437 9.38977072 130.873016L9.38977072 130.873016zM13.3474427 127.5L13.3474427 134.246032M213.906526 130.873016C213.906526 132.735595 212.72516 134.246032 211.268078 134.246032 209.810995 134.246032 208.62963 132.735595 208.62963 130.873016 208.62963 129.010437 209.810995 127.5 211.268078 127.5 212.72516 127.5 213.906526 129.010437 213.906526 130.873016L213.906526 130.873016zM217.864198 127.5L217.864198 134.246032M221.821869 127.5L221.821869 134.246032M231.056437 130.873016C231.056437 132.735595 229.875072 134.246032 228.417989 134.246032 226.960907 134.246032 225.779541 132.735595 225.779541 130.873016 225.779541 129.010437 226.960907 127.5 228.417989 127.5 229.875072 127.5 231.056437 129.010437 231.056437 130.873016L231.056437 130.873016zM235.014109 127.5L235.014109 134.246032M245.573192 130.873016C245.573192 132.735595 244.391827 134.246032 242.934744 134.246032 241.477661 134.246032 240.296296 132.735595 240.296296 130.873016 240.296296 129.010437 241.477661 127.5 242.934744 127.5 244.391827 127.5 245.573192 129.010437 245.573192 130.873016L245.573192 130.873016zM249.530864 127.5L249.530864 134.246032M253.488536 127.5L253.488536 134.246032M262.723104 130.873016C262.723104 132.735595 261.541739 134.246032 260.084656 134.246032 258.627573 134.246032 257.446208 132.735595 257.446208 130.873016 257.446208 129.010437 258.627573 127.5 260.084656 127.5 261.541739 127.5 262.723104 129.010437 262.723104 130.873016L262.723104 130.873016zM266.680776 127.5L266.680776 134.246032M307.906526 130.873016C307.906526 132.735595 306.72516 134.246032 305.268078 134.246032 303.810995 134.246032 302.62963 132.735595 302.62963 130.873016 302.62963 129.010437 303.810995 127.5 305.268078 127.5 306.72516 127.5 307.906526 129.010437 307.906526 130.873016L307.906526 130.873016zM276.906526 130.373016C276.906526 132.235595 275.72516 133.746032 274.268078 133.746032 272.810995 133.746032 271.62963 132.235595 271.62963 130.373016 271.62963 128.510437 272.810995 127 274.268078 127 275.72516 127 276.906526 128.510437 276.906526 130.373016L276.906526 130.373016zM280.864198 127L280.864198 133.746032M284.821869 127L284.821869 133.746032M296.906526 105.873016C296.906526 107.735595 295.72516 109.246032 294.268078 109.246032 292.810995 109.246032 291.62963 107.735595 291.62963 105.873016 291.62963 104.010437 292.810995 102.5 294.268078 102.5 295.72516 102.5 296.906526 104.010437 296.906526 105.873016L296.906526 105.873016zM294.389771 130.873016C294.389771 132.735595 293.208406 134.246032 291.751323 134.246032 290.29424 134.246032 289.112875 132.735595 289.112875 130.873016 289.112875 129.010437 290.29424 127.5 291.751323 127.5 293.208406 127.5 294.389771 129.010437 294.389771 130.873016L294.389771 130.873016zM298.347443 127.5L298.347443 134.246032M195.988536 143.373016C195.988536 145.235595 194.807171 146.746032 193.350088 146.746032 191.893005 146.746032 190.71164 145.235595 190.71164 143.373016 190.71164 141.510437 191.893005 140 193.350088 140 194.807171 140 195.988536 141.510437 195.988536 143.373016L195.988536 143.373016zM209.180776 143.373016C209.180776 145.235595 207.999411 146.746032 206.542328 146.746032 205.085245 146.746032 203.90388 145.235595 203.90388 143.373016 203.90388 141.510437 205.085245 140 206.542328 140 207.999411 140 209.180776 141.510437 209.180776 143.373016L209.180776 143.373016zM199.946208 140L199.946208 146.746032M186.753968 140L186.753968 146.746032M182.796296 140L182.796296 146.746032M164.321869 143.373016C164.321869 145.235595 163.140504 146.746032 161.683422 146.746032 160.226339 146.746032 159.044974 145.235595 159.044974 143.373016 159.044974 141.510437 160.226339 140 161.683422 140 163.140504 140 164.321869 141.510437 164.321869 143.373016L164.321869 143.373016zM177.514109 143.373016C177.514109 145.235595 176.332744 146.746032 174.875661 146.746032 173.418578 146.746032 172.237213 145.235595 172.237213 143.373016 172.237213 141.510437 173.418578 140 174.875661 140 176.332744 140 177.514109 141.510437 177.514109 143.373016L177.514109 143.373016zM168.279541 140L168.279541 146.746032M155.087302 140L155.087302 146.746032M151.12963 140L151.12963 146.746032M132.655203 143.373016C132.655203 145.235595 131.473838 146.746032 130.016755 146.746032 128.559672 146.746032 127.378307 145.235595 127.378307 143.373016 127.378307 141.510437 128.559672 140 130.016755 140 131.473838 140 132.655203 141.510437 132.655203 143.373016L132.655203 143.373016zM145.847443 143.373016C145.847443 145.235595 144.666078 146.746032 143.208995 146.746032 141.751912 146.746032 140.570547 145.235595 140.570547 143.373016 140.570547 141.510437 141.751912 140 143.208995 140 144.666078 140 145.847443 141.510437 145.847443 143.373016L145.847443 143.373016zM136.612875 140L136.612875 146.746032M123.420635 140L123.420635 146.746032M119.462963 140L119.462963 146.746032M100.988536 143.373016C100.988536 145.235595 99.8071711 146.746032 98.3500882 146.746032 96.8930053 146.746032 95.7116402 145.235595 95.7116402 143.373016 95.7116402 141.510437 96.8930053 140 98.3500882 140 99.8071711 140 100.988536 141.510437 100.988536 143.373016L100.988536 143.373016zM114.180776 143.373016C114.180776 145.235595 112.999411 146.746032 111.542328 146.746032 110.085245 146.746032 108.90388 145.235595 108.90388 143.373016 108.90388 141.510437 110.085245 140 111.542328 140 112.999411 140 114.180776 141.510437 114.180776 143.373016L114.180776 143.373016zM104.946208 140L104.946208 146.746032M91.7539683 140L91.7539683 146.746032M87.7962963 140L87.7962963 146.746032M69.3218695 143.373016C69.3218695 145.235595 68.1405044 146.746032 66.6834215 146.746032 65.2263386 146.746032 64.0449735 145.235595 64.0449735 143.373016 64.0449735 141.510437 65.2263386 140 66.6834215 140 68.1405044 140 69.3218695 141.510437 69.3218695 143.373016L69.3218695 143.373016zM82.5141093 143.373016C82.5141093 145.235595 81.3327443 146.746032 79.8756614 146.746032 78.4185785 146.746032 77.2372134 145.235595 77.2372134 143.373016 77.2372134 141.510437 78.4185785 140 79.8756614 140 81.3327443 140 82.5141093 141.510437 82.5141093 143.373016L82.5141093 143.373016zM73.2795414 140L73.2795414 146.746032M60.0873016 140L60.0873016 146.746032M56.1296296 140L56.1296296 146.746032M37.6552028 143.373016C37.6552028 145.235595 36.4738377 146.746032 35.0167549 146.746032 33.559672 146.746032 32.3783069 145.235595 32.3783069 143.373016 32.3783069 141.510437 33.559672 140 35.0167549 140 36.4738377 140 37.6552028 141.510437 37.6552028 143.373016L37.6552028 143.373016zM50.8474427 143.373016C50.8474427 145.235595 49.6660776 146.746032 48.2089947 146.746032 46.7519118 146.746032 45.5705467 145.235595 45.5705467 143.373016 45.5705467 141.510437 46.7519118 140 48.2089947 140 49.6660776 140 50.8474427 141.510437 50.8474427 143.373016L50.8474427 143.373016zM41.6128748 140L41.6128748 146.746032M28.4206349 140L28.4206349 146.746032M24.462963 140L24.462963 146.746032M5.98853616 143.373016C5.98853616 145.235595 4.80717108 146.746032 3.35008818 146.746032 1.89300529 146.746032.711640212 145.235595.711640212 143.373016.711640212 141.510437 1.89300529 140 3.35008818 140 4.80717108 140 5.98853616 141.510437 5.98853616 143.373016L5.98853616 143.373016zM19.180776 143.373016C19.180776 145.235595 17.9994109 146.746032 16.542328 146.746032 15.0852451 146.746032 13.9038801 145.235595 13.9038801 143.373016 13.9038801 141.510437 15.0852451 140 16.542328 140 17.9994109 140 19.180776 141.510437 19.180776 143.373016L19.180776 143.373016zM9.94620811 140L9.94620811 146.746032M226.821869 143.373016C226.821869 145.235595 225.640504 146.746032 224.183422 146.746032 222.726339 146.746032 221.544974 145.235595 221.544974 143.373016 221.544974 141.510437 222.726339 140 224.183422 140 225.640504 140 226.821869 141.510437 226.821869 143.373016L226.821869 143.373016zM240.014109 143.373016C240.014109 145.235595 238.832744 146.746032 237.375661 146.746032 235.918578 146.746032 234.737213 145.235595 234.737213 143.373016 234.737213 141.510437 235.918578 140 237.375661 140 238.832744 140 240.014109 141.510437 240.014109 143.373016L240.014109 143.373016zM230.779541 140L230.779541 146.746032M217.587302 140L217.587302 146.746032M213.62963 140L213.62963 146.746032M259.321869 143.373016C259.321869 145.235595 258.140504 146.746032 256.683422 146.746032 255.226339 146.746032 254.044974 145.235595 254.044974 143.373016 254.044974 141.510437 255.226339 140 256.683422 140 258.140504 140 259.321869 141.510437 259.321869 143.373016L259.321869 143.373016zM272.514109 143.373016C272.514109 145.235595 271.332744 146.746032 269.875661 146.746032 268.418578 146.746032 267.237213 145.235595 267.237213 143.373016 267.237213 141.510437 268.418578 140 269.875661 140 271.332744 140 272.514109 141.510437 272.514109 143.373016L272.514109 143.373016zM263.279541 140L263.279541 146.746032M250.087302 140L250.087302 146.746032M246.12963 140L246.12963 146.746032M290.988536 143.373016C290.988536 145.235595 289.807171 146.746032 288.350088 146.746032 286.893005 146.746032 285.71164 145.235595 285.71164 143.373016 285.71164 141.510437 286.893005 140 288.350088 140 289.807171 140 290.988536 141.510437 290.988536 143.373016L290.988536 143.373016zM304.180776 143.373016C304.180776 145.235595 302.999411 146.746032 301.542328 146.746032 300.085245 146.746032 298.90388 145.235595 298.90388 143.373016 298.90388 141.510437 300.085245 140 301.542328 140 302.999411 140 304.180776 141.510437 304.180776 143.373016L304.180776 143.373016zM294.946208 140L294.946208 146.746032M281.753968 140L281.753968 146.746032M277.796296 140L277.796296 146.746032M182.239859 155.873016C182.239859 157.735595 181.058494 159.246032 179.601411 159.246032 178.144328 159.246032 176.962963 157.735595 176.962963 155.873016 176.962963 154.010437 178.144328 152.5 179.601411 152.5 181.058494 152.5 182.239859 154.010437 182.239859 155.873016L182.239859 155.873016zM186.197531 152.5L186.197531 159.246032M190.155203 152.5L190.155203 159.246032M199.389771 155.873016C199.389771 157.735595 198.208406 159.246032 196.751323 159.246032 195.29424 159.246032 194.112875 157.735595 194.112875 155.873016 194.112875 154.010437 195.29424 152.5 196.751323 152.5 198.208406 152.5 199.389771 154.010437 199.389771 155.873016L199.389771 155.873016zM203.347443 152.5L203.347443 159.246032M150.573192 155.873016C150.573192 157.735595 149.391827 159.246032 147.934744 159.246032 146.477661 159.246032 145.296296 157.735595 145.296296 155.873016 145.296296 154.010437 146.477661 152.5 147.934744 152.5 149.391827 152.5 150.573192 154.010437 150.573192 155.873016L150.573192 155.873016zM154.530864 152.5L154.530864 159.246032M158.488536 152.5L158.488536 159.246032M167.723104 155.873016C167.723104 157.735595 166.541739 159.246032 165.084656 159.246032 163.627573 159.246032 162.446208 157.735595 162.446208 155.873016 162.446208 154.010437 163.627573 152.5 165.084656 152.5 166.541739 152.5 167.723104 154.010437 167.723104 155.873016L167.723104 155.873016zM171.680776 152.5L171.680776 159.246032M118.906526 155.873016C118.906526 157.735595 117.72516 159.246032 116.268078 159.246032 114.810995 159.246032 113.62963 157.735595 113.62963 155.873016 113.62963 154.010437 114.810995 152.5 116.268078 152.5 117.72516 152.5 118.906526 154.010437 118.906526 155.873016L118.906526 155.873016zM122.864198 152.5L122.864198 159.246032M126.821869 152.5L126.821869 159.246032M136.056437 155.873016C136.056437 157.735595 134.875072 159.246032 133.417989 159.246032 131.960907 159.246032 130.779541 157.735595 130.779541 155.873016 130.779541 154.010437 131.960907 152.5 133.417989 152.5 134.875072 152.5 136.056437 154.010437 136.056437 155.873016L136.056437 155.873016zM140.014109 152.5L140.014109 159.246032M87.2398589 155.873016C87.2398589 157.735595 86.0584938 159.246032 84.6014109 159.246032 83.144328 159.246032 81.962963 157.735595 81.962963 155.873016 81.962963 154.010437 83.144328 152.5 84.6014109 152.5 86.0584938 152.5 87.2398589 154.010437 87.2398589 155.873016L87.2398589 155.873016zM91.1975309 152.5L91.1975309 159.246032M95.1552028 152.5L95.1552028 159.246032M104.389771 155.873016C104.389771 157.735595 103.208406 159.246032 101.751323 159.246032 100.29424 159.246032 99.1128748 157.735595 99.1128748 155.873016 99.1128748 154.010437 100.29424 152.5 101.751323 152.5 103.208406 152.5 104.389771 154.010437 104.389771 155.873016L104.389771 155.873016zM108.347443 152.5L108.347443 159.246032M55.5731922 155.873016C55.5731922 157.735595 54.3918272 159.246032 52.9347443 159.246032 51.4776614 159.246032 50.2962963 157.735595 50.2962963 155.873016 50.2962963 154.010437 51.4776614 152.5 52.9347443 152.5 54.3918272 152.5 55.5731922 154.010437 55.5731922 155.873016L55.5731922 155.873016zM59.5308642 152.5L59.5308642 159.246032M63.4885362 152.5L63.4885362 159.246032M72.7231041 155.873016C72.7231041 157.735595 71.541739 159.246032 70.0846561 159.246032 68.6275732 159.246032 67.4462081 157.735595 67.4462081 155.873016 67.4462081 154.010437 68.6275732 152.5 70.0846561 152.5 71.541739 152.5 72.7231041 154.010437 72.7231041 155.873016L72.7231041 155.873016zM76.680776 152.5L76.680776 159.246032M23.9065256 155.873016C23.9065256 157.735595 22.7251605 159.246032 21.2680776 159.246032 19.8109947 159.246032 18.6296296 157.735595 18.6296296 155.873016 18.6296296 154.010437 19.8109947 152.5 21.2680776 152.5 22.7251605 152.5 23.9065256 154.010437 23.9065256 155.873016L23.9065256 155.873016zM27.8641975 152.5L27.8641975 159.246032M31.8218695 152.5L31.8218695 159.246032M41.0564374 155.873016C41.0564374 157.735595 39.8750723 159.246032 38.4179894 159.246032 36.9609065 159.246032 35.7795414 157.735595 35.7795414 155.873016 35.7795414 154.010437 36.9609065 152.5 38.4179894 152.5 39.8750723 152.5 41.0564374 154.010437 41.0564374 155.873016L41.0564374 155.873016zM45.0141093 152.5L45.0141093 159.246032M9.38977072 155.873016C9.38977072 157.735595 8.20840564 159.246032 6.75132275 159.246032 5.29423986 159.246032 4.11287478 157.735595 4.11287478 155.873016 4.11287478 154.010437 5.29423986 152.5 6.75132275 152.5 8.20840564 152.5 9.38977072 154.010437 9.38977072 155.873016L9.38977072 155.873016zM13.3474427 152.5L13.3474427 159.246032M213.906526 155.873016C213.906526 157.735595 212.72516 159.246032 211.268078 159.246032 209.810995 159.246032 208.62963 157.735595 208.62963 155.873016 208.62963 154.010437 209.810995 152.5 211.268078 152.5 212.72516 152.5 213.906526 154.010437 213.906526 155.873016L213.906526 155.873016zM217.864198 152.5L217.864198 159.246032M221.821869 152.5L221.821869 159.246032M231.056437 155.873016C231.056437 157.735595 229.875072 159.246032 228.417989 159.246032 226.960907 159.246032 225.779541 157.735595 225.779541 155.873016 225.779541 154.010437 226.960907 152.5 228.417989 152.5 229.875072 152.5 231.056437 154.010437 231.056437 155.873016L231.056437 155.873016zM235.014109 152.5L235.014109 159.246032M245.573192 155.873016C245.573192 157.735595 244.391827 159.246032 242.934744 159.246032 241.477661 159.246032 240.296296 157.735595 240.296296 155.873016 240.296296 154.010437 241.477661 152.5 242.934744 152.5 244.391827 152.5 245.573192 154.010437 245.573192 155.873016L245.573192 155.873016zM249.530864 152.5L249.530864 159.246032M253.488536 152.5L253.488536 159.246032M262.723104 155.873016C262.723104 157.735595 261.541739 159.246032 260.084656 159.246032 258.627573 159.246032 257.446208 157.735595 257.446208 155.873016 257.446208 154.010437 258.627573 152.5 260.084656 152.5 261.541739 152.5 262.723104 154.010437 262.723104 155.873016L262.723104 155.873016zM266.680776 152.5L266.680776 159.246032M277.239859 155.873016C277.239859 157.735595 276.058494 159.246032 274.601411 159.246032 273.144328 159.246032 271.962963 157.735595 271.962963 155.873016 271.962963 154.010437 273.144328 152.5 274.601411 152.5 276.058494 152.5 277.239859 154.010437 277.239859 155.873016L277.239859 155.873016zM281.197531 152.5L281.197531 159.246032M285.155203 152.5L285.155203 159.246032M294.276896 155.373016C294.276896 157.235595 293.095531 158.746032 291.638448 158.746032 290.181365 158.746032 289 157.235595 289 155.373016 289 153.510437 290.181365 152 291.638448 152 293.095531 152 294.276896 153.510437 294.276896 155.373016L294.276896 155.373016zM298.347443 152.5L298.347443 159.246032M195.988536 168.373016C195.988536 170.235595 194.807171 171.746032 193.350088 171.746032 191.893005 171.746032 190.71164 170.235595 190.71164 168.373016 190.71164 166.510437 191.893005 165 193.350088 165 194.807171 165 195.988536 166.510437 195.988536 168.373016L195.988536 168.373016zM209.180776 168.373016C209.180776 170.235595 207.999411 171.746032 206.542328 171.746032 205.085245 171.746032 203.90388 170.235595 203.90388 168.373016 203.90388 166.510437 205.085245 165 206.542328 165 207.999411 165 209.180776 166.510437 209.180776 168.373016L209.180776 168.373016zM199.946208 165L199.946208 171.746032M186.753968 165L186.753968 171.746032M182.796296 165L182.796296 171.746032M164.321869 168.373016C164.321869 170.235595 163.140504 171.746032 161.683422 171.746032 160.226339 171.746032 159.044974 170.235595 159.044974 168.373016 159.044974 166.510437 160.226339 165 161.683422 165 163.140504 165 164.321869 166.510437 164.321869 168.373016L164.321869 168.373016zM177.514109 168.373016C177.514109 170.235595 176.332744 171.746032 174.875661 171.746032 173.418578 171.746032 172.237213 170.235595 172.237213 168.373016 172.237213 166.510437 173.418578 165 174.875661 165 176.332744 165 177.514109 166.510437 177.514109 168.373016L177.514109 168.373016zM168.279541 165L168.279541 171.746032M155.087302 165L155.087302 171.746032M151.12963 165L151.12963 171.746032M132.655203 168.373016C132.655203 170.235595 131.473838 171.746032 130.016755 171.746032 128.559672 171.746032 127.378307 170.235595 127.378307 168.373016 127.378307 166.510437 128.559672 165 130.016755 165 131.473838 165 132.655203 166.510437 132.655203 168.373016L132.655203 168.373016zM145.847443 168.373016C145.847443 170.235595 144.666078 171.746032 143.208995 171.746032 141.751912 171.746032 140.570547 170.235595 140.570547 168.373016 140.570547 166.510437 141.751912 165 143.208995 165 144.666078 165 145.847443 166.510437 145.847443 168.373016L145.847443 168.373016zM136.612875 165L136.612875 171.746032M123.420635 165L123.420635 171.746032M119.462963 165L119.462963 171.746032M100.988536 168.373016C100.988536 170.235595 99.8071711 171.746032 98.3500882 171.746032 96.8930053 171.746032 95.7116402 170.235595 95.7116402 168.373016 95.7116402 166.510437 96.8930053 165 98.3500882 165 99.8071711 165 100.988536 166.510437 100.988536 168.373016L100.988536 168.373016zM114.180776 168.373016C114.180776 170.235595 112.999411 171.746032 111.542328 171.746032 110.085245 171.746032 108.90388 170.235595 108.90388 168.373016 108.90388 166.510437 110.085245 165 111.542328 165 112.999411 165 114.180776 166.510437 114.180776 168.373016L114.180776 168.373016zM104.946208 165L104.946208 171.746032M91.7539683 165L91.7539683 171.746032M87.7962963 165L87.7962963 171.746032M69.3218695 168.373016C69.3218695 170.235595 68.1405044 171.746032 66.6834215 171.746032 65.2263386 171.746032 64.0449735 170.235595 64.0449735 168.373016 64.0449735 166.510437 65.2263386 165 66.6834215 165 68.1405044 165 69.3218695 166.510437 69.3218695 168.373016L69.3218695 168.373016zM82.5141093 168.373016C82.5141093 170.235595 81.3327443 171.746032 79.8756614 171.746032 78.4185785 171.746032 77.2372134 170.235595 77.2372134 168.373016 77.2372134 166.510437 78.4185785 165 79.8756614 165 81.3327443 165 82.5141093 166.510437 82.5141093 168.373016L82.5141093 168.373016zM73.2795414 165L73.2795414 171.746032M60.0873016 165L60.0873016 171.746032M56.1296296 165L56.1296296 171.746032M37.6552028 168.373016C37.6552028 170.235595 36.4738377 171.746032 35.0167549 171.746032 33.559672 171.746032 32.3783069 170.235595 32.3783069 168.373016 32.3783069 166.510437 33.559672 165 35.0167549 165 36.4738377 165 37.6552028 166.510437 37.6552028 168.373016L37.6552028 168.373016zM50.8474427 168.373016C50.8474427 170.235595 49.6660776 171.746032 48.2089947 171.746032 46.7519118 171.746032 45.5705467 170.235595 45.5705467 168.373016 45.5705467 166.510437 46.7519118 165 48.2089947 165 49.6660776 165 50.8474427 166.510437 50.8474427 168.373016L50.8474427 168.373016zM41.6128748 165L41.6128748 171.746032M28.4206349 165L28.4206349 171.746032M24.462963 165L24.462963 171.746032M19.180776 168.373016C19.180776 170.235595 17.9994109 171.746032 16.542328 171.746032 15.0852451 171.746032 13.9038801 170.235595 13.9038801 168.373016 13.9038801 166.510437 15.0852451 165 16.542328 165 17.9994109 165 19.180776 166.510437 19.180776 168.373016L19.180776 168.373016zM9.94620811 165L9.94620811 171.746032M226.821869 168.373016C226.821869 170.235595 225.640504 171.746032 224.183422 171.746032 222.726339 171.746032 221.544974 170.235595 221.544974 168.373016 221.544974 166.510437 222.726339 165 224.183422 165 225.640504 165 226.821869 166.510437 226.821869 168.373016L226.821869 168.373016zM240.014109 168.373016C240.014109 170.235595 238.832744 171.746032 237.375661 171.746032 235.918578 171.746032 234.737213 170.235595 234.737213 168.373016 234.737213 166.510437 235.918578 165 237.375661 165 238.832744 165 240.014109 166.510437 240.014109 168.373016L240.014109 168.373016zM230.779541 165L230.779541 171.746032M217.587302 165L217.587302 171.746032M213.62963 165L213.62963 171.746032M259.321869 168.373016C259.321869 170.235595 258.140504 171.746032 256.683422 171.746032 255.226339 171.746032 254.044974 170.235595 254.044974 168.373016 254.044974 166.510437 255.226339 165 256.683422 165 258.140504 165 259.321869 166.510437 259.321869 168.373016L259.321869 168.373016zM272.514109 168.373016C272.514109 170.235595 271.332744 171.746032 269.875661 171.746032 268.418578 171.746032 267.237213 170.235595 267.237213 168.373016 267.237213 166.510437 268.418578 165 269.875661 165 271.332744 165 272.514109 166.510437 272.514109 168.373016L272.514109 168.373016zM263.279541 165L263.279541 171.746032M250.087302 165L250.087302 171.746032M246.12963 165L246.12963 171.746032M290.655203 167.873016C290.655203 169.735595 289.473838 171.246032 288.016755 171.246032 286.559672 171.246032 285.378307 169.735595 285.378307 167.873016 285.378307 166.010437 286.559672 164.5 288.016755 164.5 289.473838 164.5 290.655203 166.010437 290.655203 167.873016L290.655203 167.873016zM294.612875 164.5L294.612875 171.246032M281.753968 165L281.753968 171.746032M277.796296 165L277.796296 171.746032M193.155203 192.873016C193.155203 194.735595 191.973838 196.246032 190.516755 196.246032 189.059672 196.246032 187.878307 194.735595 187.878307 192.873016 187.878307 191.010437 189.059672 189.5 190.516755 189.5 191.973838 189.5 193.155203 191.010437 193.155203 192.873016L193.155203 192.873016zM206.347443 192.873016C206.347443 194.735595 205.166078 196.246032 203.708995 196.246032 202.251912 196.246032 201.070547 194.735595 201.070547 192.873016 201.070547 191.010437 202.251912 189.5 203.708995 189.5 205.166078 189.5 206.347443 191.010437 206.347443 192.873016L206.347443 192.873016zM197.112875 189.5L197.112875 196.246032M183.920635 189.5L183.920635 196.246032M179.962963 189.5L179.962963 196.246032M161.488536 192.873016C161.488536 194.735595 160.307171 196.246032 158.850088 196.246032 157.393005 196.246032 156.21164 194.735595 156.21164 192.873016 156.21164 191.010437 157.393005 189.5 158.850088 189.5 160.307171 189.5 161.488536 191.010437 161.488536 192.873016L161.488536 192.873016zM174.680776 192.873016C174.680776 194.735595 173.499411 196.246032 172.042328 196.246032 170.585245 196.246032 169.40388 194.735595 169.40388 192.873016 169.40388 191.010437 170.585245 189.5 172.042328 189.5 173.499411 189.5 174.680776 191.010437 174.680776 192.873016L174.680776 192.873016zM165.446208 189.5L165.446208 196.246032M152.253968 189.5L152.253968 196.246032M148.296296 189.5L148.296296 196.246032M129.821869 192.873016C129.821869 194.735595 128.640504 196.246032 127.183422 196.246032 125.726339 196.246032 124.544974 194.735595 124.544974 192.873016 124.544974 191.010437 125.726339 189.5 127.183422 189.5 128.640504 189.5 129.821869 191.010437 129.821869 192.873016L129.821869 192.873016zM143.014109 192.873016C143.014109 194.735595 141.832744 196.246032 140.375661 196.246032 138.918578 196.246032 137.737213 194.735595 137.737213 192.873016 137.737213 191.010437 138.918578 189.5 140.375661 189.5 141.832744 189.5 143.014109 191.010437 143.014109 192.873016L143.014109 192.873016zM133.779541 189.5L133.779541 196.246032M120.587302 189.5L120.587302 196.246032M116.62963 189.5L116.62963 196.246032M98.1552028 192.873016C98.1552028 194.735595 96.9738377 196.246032 95.5167549 196.246032 94.059672 196.246032 92.8783069 194.735595 92.8783069 192.873016 92.8783069 191.010437 94.059672 189.5 95.5167549 189.5 96.9738377 189.5 98.1552028 191.010437 98.1552028 192.873016L98.1552028 192.873016zM111.347443 192.873016C111.347443 194.735595 110.166078 196.246032 108.708995 196.246032 107.251912 196.246032 106.070547 194.735595 106.070547 192.873016 106.070547 191.010437 107.251912 189.5 108.708995 189.5 110.166078 189.5 111.347443 191.010437 111.347443 192.873016L111.347443 192.873016zM102.112875 189.5L102.112875 196.246032M88.9206349 189.5L88.9206349 196.246032M84.962963 189.5L84.962963 196.246032M66.4885362 192.873016C66.4885362 194.735595 65.3071711 196.246032 63.8500882 196.246032 62.3930053 196.246032 61.2116402 194.735595 61.2116402 192.873016 61.2116402 191.010437 62.3930053 189.5 63.8500882 189.5 65.3071711 189.5 66.4885362 191.010437 66.4885362 192.873016L66.4885362 192.873016zM79.680776 192.873016C79.680776 194.735595 78.4994109 196.246032 77.042328 196.246032 75.5852451 196.246032 74.4038801 194.735595 74.4038801 192.873016 74.4038801 191.010437 75.5852451 189.5 77.042328 189.5 78.4994109 189.5 79.680776 191.010437 79.680776 192.873016L79.680776 192.873016zM70.4462081 189.5L70.4462081 196.246032M57.2539683 189.5L57.2539683 196.246032M53.2962963 189.5L53.2962963 196.246032M34.8218695 192.873016C34.8218695 194.735595 33.6405044 196.246032 32.1834215 196.246032 30.7263386 196.246032 29.5449735 194.735595 29.5449735 192.873016 29.5449735 191.010437 30.7263386 189.5 32.1834215 189.5 33.6405044 189.5 34.8218695 191.010437 34.8218695 192.873016L34.8218695 192.873016zM48.0141093 192.873016C48.0141093 194.735595 46.8327443 196.246032 45.3756614 196.246032 43.9185785 196.246032 42.7372134 194.735595 42.7372134 192.873016 42.7372134 191.010437 43.9185785 189.5 45.3756614 189.5 46.8327443 189.5 48.0141093 191.010437 48.0141093 192.873016L48.0141093 192.873016zM38.7795414 189.5L38.7795414 196.246032M25.5873016 189.5L25.5873016 196.246032M223.988536 192.873016C223.988536 194.735595 222.807171 196.246032 221.350088 196.246032 219.893005 196.246032 218.71164 194.735595 218.71164 192.873016 218.71164 191.010437 219.893005 189.5 221.350088 189.5 222.807171 189.5 223.988536 191.010437 223.988536 192.873016L223.988536 192.873016zM237.180776 192.873016C237.180776 194.735595 235.999411 196.246032 234.542328 196.246032 233.085245 196.246032 231.90388 194.735595 231.90388 192.873016 231.90388 191.010437 233.085245 189.5 234.542328 189.5 235.999411 189.5 237.180776 191.010437 237.180776 192.873016L237.180776 192.873016zM227.946208 189.5L227.946208 196.246032M214.753968 189.5L214.753968 196.246032M210.796296 189.5L210.796296 196.246032M256.488536 192.873016C256.488536 194.735595 255.307171 196.246032 253.850088 196.246032 252.393005 196.246032 251.21164 194.735595 251.21164 192.873016 251.21164 191.010437 252.393005 189.5 253.850088 189.5 255.307171 189.5 256.488536 191.010437 256.488536 192.873016L256.488536 192.873016zM269.680776 192.873016C269.680776 194.735595 268.499411 196.246032 267.042328 196.246032 265.585245 196.246032 264.40388 194.735595 264.40388 192.873016 264.40388 191.010437 265.585245 189.5 267.042328 189.5 268.499411 189.5 269.680776 191.010437 269.680776 192.873016L269.680776 192.873016zM260.446208 189.5L260.446208 196.246032M247.253968 189.5L247.253968 196.246032M243.296296 189.5L243.296296 196.246032M182.239859 180.873016C182.239859 182.735595 181.058494 184.246032 179.601411 184.246032 178.144328 184.246032 176.962963 182.735595 176.962963 180.873016 176.962963 179.010437 178.144328 177.5 179.601411 177.5 181.058494 177.5 182.239859 179.010437 182.239859 180.873016L182.239859 180.873016zM186.197531 177.5L186.197531 184.246032M190.155203 177.5L190.155203 184.246032M199.389771 180.873016C199.389771 182.735595 198.208406 184.246032 196.751323 184.246032 195.29424 184.246032 194.112875 182.735595 194.112875 180.873016 194.112875 179.010437 195.29424 177.5 196.751323 177.5 198.208406 177.5 199.389771 179.010437 199.389771 180.873016L199.389771 180.873016zM203.347443 177.5L203.347443 184.246032M150.573192 180.873016C150.573192 182.735595 149.391827 184.246032 147.934744 184.246032 146.477661 184.246032 145.296296 182.735595 145.296296 180.873016 145.296296 179.010437 146.477661 177.5 147.934744 177.5 149.391827 177.5 150.573192 179.010437 150.573192 180.873016L150.573192 180.873016zM154.530864 177.5L154.530864 184.246032M158.488536 177.5L158.488536 184.246032M167.723104 180.873016C167.723104 182.735595 166.541739 184.246032 165.084656 184.246032 163.627573 184.246032 162.446208 182.735595 162.446208 180.873016 162.446208 179.010437 163.627573 177.5 165.084656 177.5 166.541739 177.5 167.723104 179.010437 167.723104 180.873016L167.723104 180.873016zM171.680776 177.5L171.680776 184.246032M118.906526 180.873016C118.906526 182.735595 117.72516 184.246032 116.268078 184.246032 114.810995 184.246032 113.62963 182.735595 113.62963 180.873016 113.62963 179.010437 114.810995 177.5 116.268078 177.5 117.72516 177.5 118.906526 179.010437 118.906526 180.873016L118.906526 180.873016zM122.864198 177.5L122.864198 184.246032M126.821869 177.5L126.821869 184.246032M136.056437 180.873016C136.056437 182.735595 134.875072 184.246032 133.417989 184.246032 131.960907 184.246032 130.779541 182.735595 130.779541 180.873016 130.779541 179.010437 131.960907 177.5 133.417989 177.5 134.875072 177.5 136.056437 179.010437 136.056437 180.873016L136.056437 180.873016zM140.014109 177.5L140.014109 184.246032M87.2398589 180.873016C87.2398589 182.735595 86.0584938 184.246032 84.6014109 184.246032 83.144328 184.246032 81.962963 182.735595 81.962963 180.873016 81.962963 179.010437 83.144328 177.5 84.6014109 177.5 86.0584938 177.5 87.2398589 179.010437 87.2398589 180.873016L87.2398589 180.873016zM91.1975309 177.5L91.1975309 184.246032M95.1552028 177.5L95.1552028 184.246032M104.389771 180.873016C104.389771 182.735595 103.208406 184.246032 101.751323 184.246032 100.29424 184.246032 99.1128748 182.735595 99.1128748 180.873016 99.1128748 179.010437 100.29424 177.5 101.751323 177.5 103.208406 177.5 104.389771 179.010437 104.389771 180.873016L104.389771 180.873016zM108.347443 177.5L108.347443 184.246032M55.5731922 180.873016C55.5731922 182.735595 54.3918272 184.246032 52.9347443 184.246032 51.4776614 184.246032 50.2962963 182.735595 50.2962963 180.873016 50.2962963 179.010437 51.4776614 177.5 52.9347443 177.5 54.3918272 177.5 55.5731922 179.010437 55.5731922 180.873016L55.5731922 180.873016zM59.5308642 177.5L59.5308642 184.246032M63.4885362 177.5L63.4885362 184.246032M72.7231041 180.873016C72.7231041 182.735595 71.541739 184.246032 70.0846561 184.246032 68.6275732 184.246032 67.4462081 182.735595 67.4462081 180.873016 67.4462081 179.010437 68.6275732 177.5 70.0846561 177.5 71.541739 177.5 72.7231041 179.010437 72.7231041 180.873016L72.7231041 180.873016zM76.680776 177.5L76.680776 184.246032M23.9065256 180.873016C23.9065256 182.735595 22.7251605 184.246032 21.2680776 184.246032 19.8109947 184.246032 18.6296296 182.735595 18.6296296 180.873016 18.6296296 179.010437 19.8109947 177.5 21.2680776 177.5 22.7251605 177.5 23.9065256 179.010437 23.9065256 180.873016L23.9065256 180.873016zM27.8641975 177.5L27.8641975 184.246032M31.8218695 177.5L31.8218695 184.246032M41.0564374 180.873016C41.0564374 182.735595 39.8750723 184.246032 38.4179894 184.246032 36.9609065 184.246032 35.7795414 182.735595 35.7795414 180.873016 35.7795414 179.010437 36.9609065 177.5 38.4179894 177.5 39.8750723 177.5 41.0564374 179.010437 41.0564374 180.873016L41.0564374 180.873016zM45.0141093 177.5L45.0141093 184.246032M13.3474427 177.5L13.3474427 184.246032M213.906526 180.873016C213.906526 182.735595 212.72516 184.246032 211.268078 184.246032 209.810995 184.246032 208.62963 182.735595 208.62963 180.873016 208.62963 179.010437 209.810995 177.5 211.268078 177.5 212.72516 177.5 213.906526 179.010437 213.906526 180.873016L213.906526 180.873016zM217.864198 177.5L217.864198 184.246032M221.821869 177.5L221.821869 184.246032M231.056437 180.873016C231.056437 182.735595 229.875072 184.246032 228.417989 184.246032 226.960907 184.246032 225.779541 182.735595 225.779541 180.873016 225.779541 179.010437 226.960907 177.5 228.417989 177.5 229.875072 177.5 231.056437 179.010437 231.056437 180.873016L231.056437 180.873016zM235.014109 177.5L235.014109 184.246032M245.573192 180.873016C245.573192 182.735595 244.391827 184.246032 242.934744 184.246032 241.477661 184.246032 240.296296 182.735595 240.296296 180.873016 240.296296 179.010437 241.477661 177.5 242.934744 177.5 244.391827 177.5 245.573192 179.010437 245.573192 180.873016L245.573192 180.873016zM249.530864 177.5L249.530864 184.246032M253.488536 177.5L253.488536 184.246032M262.723104 180.873016C262.723104 182.735595 261.541739 184.246032 260.084656 184.246032 258.627573 184.246032 257.446208 182.735595 257.446208 180.873016 257.446208 179.010437 258.627573 177.5 260.084656 177.5 261.541739 177.5 262.723104 179.010437 262.723104 180.873016L262.723104 180.873016zM278.906526 192.873016C278.906526 194.735595 277.72516 196.246032 276.268078 196.246032 274.810995 196.246032 273.62963 194.735595 273.62963 192.873016 273.62963 191.010437 274.810995 189.5 276.268078 189.5 277.72516 189.5 278.906526 191.010437 278.906526 192.873016L278.906526 192.873016zM285.680776 177L285.680776 183.746032M266.680776 177.5L266.680776 184.246032M276.906526 180.373016C276.906526 182.235595 275.72516 183.746032 274.268078 183.746032 272.810995 183.746032 271.62963 182.235595 271.62963 180.373016 271.62963 178.510437 272.810995 177 274.268078 177 275.72516 177 276.906526 178.510437 276.906526 180.373016L276.906526 180.373016zM280.864198 177L280.864198 183.746032"/>
    <g transform="translate(145.5 75.833)">
      <use fill="#EFEFF4" xlink:href="#logo-dataport-large-blue_fill-a"/>
      <path stroke="#FFF" stroke-opacity=".7" stroke-width="6" d="M49.5833333,96.1666667 C75.3105979,96.1666667 96.1666667,75.3105979 96.1666667,49.5833333 C96.1666667,23.8560687 75.3105979,3 49.5833333,3 C23.8560687,3 3,23.8560687 3,49.5833333 C3,75.3105979 23.8560687,96.1666667 49.5833333,96.1666667 Z"/>
      <g transform="translate(5 5)">
        <use fill="#2196F3" xlink:href="#logo-dataport-large-blue_fill-b"/>
        <path stroke="#FFF" stroke-width="6" d="M74.2812319,69.1675384 L76.854711,69.0218119 L78.8860293,70.2639717 L98.1875118,89.6642044 C100.500374,91.9888997 100.161098,95.7520634 97.811453,98.101625 C95.4556735,100.4816 91.6855845,100.824987 89.3629664,98.4904858 L70.315667,79.3457366 C68.0044257,77.0226705 68.3472089,73.2648141 70.6971302,70.9028701 L70.8600968,70.7390698 L71.0462243,70.6021566 C71.1584396,70.5196125 71.2566237,70.4456954 71.3544055,70.3706076 C71.4107098,70.3273708 71.4720609,70.279715 71.5824584,70.1939855 C71.9036482,69.945933 72.1032636,69.8102782 72.4534079,69.6514559 C72.8018501,69.4934057 73.0193686,69.4367419 73.4181698,69.356951 C73.7692671,69.2867045 73.803691,69.2795346 74.0267809,69.227214 L74.2812319,69.1675384 Z"/>
        <g>
          <use fill="#FFF" xlink:href="#logo-dataport-large-blue_fill-c"/>
          <path stroke="#2196F3" stroke-width="6" d="M44.5833333,86.2916679 C67.5482326,86.2916679 86.1666667,67.647133 86.1666667,44.645834 C86.1666667,21.6445349 67.5482326,3 44.5833333,3 C21.618434,3 3,21.6445349 3,44.645834 C3,67.647133 21.618434,86.2916679 44.5833333,86.2916679 Z"/>
        </g>
      </g>
      <g fill="#FF5722" fill-opacity=".6" transform="translate(25 29)">
        <rect width="10" height="20" x="40" y="20.167"/>
        <rect width="10" height="40" x="20" y=".167"/>
        <rect width="10" height="26.667" y="13.5"/>
      </g>
    </g>
  </g>
</svg>
