<svg xmlns="http://www.w3.org/2000/svg" width="162" height="28" viewBox="0 0 162 28">
  <path fill="#2196F3" fill-rule="evenodd" d="M7.696,24.068 C9.18400744,24.068 10.5099942,23.8400023 11.674,23.384 C12.8380058,22.9279977 13.8279959,22.2740043 14.644,21.422 C15.4600041,20.5699957 16.0779979,19.5500059 16.498,18.362 C16.9180021,17.1739941 17.128,15.8480073 17.128,14.384 C17.128,12.583991 16.8520028,11.0540063 16.3,9.794 C15.7479972,8.5339937 15.0220045,7.50800396 14.122,6.716 C13.2219955,5.92399604 12.2080056,5.34200186 11.08,4.97 C9.95199436,4.59799814 8.81200576,4.412 7.66,4.412 L3.628,4.412 L3.628,24.068 L7.696,24.068 Z M1,26.48 L1,2 L7.516,2 C9.26800876,2 10.8999924,2.29399706 12.412,2.882 C13.9240076,3.47000294 15.2319945,4.3039946 16.336,5.384 C17.4400055,6.4640054 18.3039969,7.77199232 18.928,9.308 C19.5520031,10.8440077 19.864,12.5599905 19.864,14.456 C19.864,16.3040092 19.5580031,17.9719926 18.946,19.46 C18.3339969,20.9480074 17.4880054,22.2139948 16.408,23.258 C15.3279946,24.3020052 14.0320076,25.0999972 12.52,25.652 C11.0079924,26.2040028 9.352009,26.48 7.552,26.48 L1,26.48 Z M36.8454118,22.304 L28.5654118,22.304 L26.6214118,26.66 L24.0654118,26.3 L32.4894118,8.3 L32.9214118,8.3 L41.4174118,26.3 L38.8254118,26.66 L36.8454118,22.304 Z M29.6094118,19.964 L35.7654118,19.964 L32.7414118,13.304 L32.6334118,13.304 L29.6094118,19.964 Z M53.2148236,10.784 L53.2148236,26.48 L50.6948236,26.48 L50.6948236,10.784 L44.4308236,10.784 L44.4308236,8.48 L59.5508236,8.48 L59.5508236,10.784 L53.2148236,10.784 Z M75.3442354,22.304 L67.0642354,22.304 L65.1202354,26.66 L62.5642354,26.3 L70.9882354,8.3 L71.4202354,8.3 L79.9162354,26.3 L77.3242354,26.66 L75.3442354,22.304 Z M68.1082354,19.964 L74.2642354,19.964 L71.2402354,13.304 L71.1322354,13.304 L68.1082354,19.964 Z M98.1576472,13.952 C98.1576472,14.6240034 98.0376484,15.2959966 97.7976472,15.968 C97.557646,16.6400034 97.1736498,17.2459973 96.6456472,17.786 C96.1176445,18.3260027 95.4396513,18.7699983 94.6116472,19.118 C93.783643,19.4660017 92.7936529,19.64 91.6416472,19.64 L88.1496472,19.64 L88.1496472,26.48 L85.6296472,26.48 L85.6296472,8.48 L91.9656472,8.48 C92.8536516,8.48 93.6816433,8.60599874 94.4496472,8.858 C95.217651,9.11000126 95.8716445,9.4759976 96.4116472,9.956 C96.9516499,10.4360024 97.3776456,11.0119966 97.6896472,11.684 C98.0016487,12.3560034 98.1576472,13.1119958 98.1576472,13.952 Z M95.4936472,13.988 C95.4936472,12.8359942 95.1516506,12.0140025 94.4676472,11.522 C93.7836438,11.0299975 92.9016526,10.784 91.8216472,10.784 L88.1496472,10.784 L88.1496472,17.336 L91.7496472,17.336 C92.9016529,17.336 93.8136438,17.0540028 94.4856472,16.49 C95.1576505,15.9259972 95.4936472,15.0920055 95.4936472,13.988 Z M122.087059,17.696 C122.087059,18.9200061 121.853061,20.0839945 121.385059,21.188 C120.917057,22.2920055 120.263063,23.2639958 119.423059,24.104 C118.583055,24.9440042 117.587065,25.6099975 116.435059,26.102 C115.283053,26.5940025 114.023066,26.84 112.655059,26.84 C111.287052,26.84 110.027065,26.6060023 108.875059,26.138 C107.723053,25.6699977 106.721063,25.0220041 105.869059,24.194 C105.017055,23.3659959 104.351061,22.4000055 103.871059,21.296 C103.391057,20.1919945 103.151059,18.9920065 103.151059,17.696 C103.151059,16.2559928 103.409056,14.9420059 103.925059,13.754 C104.441062,12.5659941 105.137055,11.5580041 106.013059,10.73 C106.889063,9.90199586 107.897053,9.26000228 109.037059,8.804 C110.177065,8.34799772 111.383053,8.12 112.655059,8.12 C113.879065,8.12 115.061053,8.34199778 116.201059,8.786 C117.341065,9.23000222 118.343055,9.86599586 119.207059,10.694 C120.071063,11.5220041 120.767056,12.5299941 121.295059,13.718 C121.823062,14.9060059 122.087059,16.2319927 122.087059,17.696 Z M119.423059,17.624 C119.423059,16.5679947 119.243061,15.6020044 118.883059,14.726 C118.523057,13.8499956 118.037062,13.1000031 117.425059,12.476 C116.813056,11.8519969 116.093063,11.3660017 115.265059,11.018 C114.437055,10.6699983 113.555064,10.496 112.619059,10.496 C111.707054,10.496 110.843063,10.6579984 110.027059,10.982 C109.211055,11.3060016 108.491062,11.7739969 107.867059,12.386 C107.243056,12.9980031 106.745061,13.7419956 106.373059,14.618 C106.001057,15.4940044 105.815059,16.4959944 105.815059,17.624 C105.815059,18.5360046 105.965057,19.3999959 106.265059,20.216 C106.56506,21.0320041 107.009056,21.7579968 107.597059,22.394 C108.185062,23.0300032 108.911055,23.5339981 109.775059,23.906 C110.639063,24.2780019 111.623053,24.464 112.727059,24.464 C113.735064,24.464 114.653055,24.2780019 115.481059,23.906 C116.309063,23.5339981 117.017056,23.0300032 117.605059,22.394 C118.193062,21.7579968 118.643057,21.0320041 118.955059,20.216 C119.267061,19.3999959 119.423059,18.5360046 119.423059,17.624 Z M142.668471,25.796 L142.668471,26.192 L140.292471,26.696 L133.920471,19.424 L130.968471,19.424 L130.968471,26.48 L128.448471,26.48 L128.448471,8.48 L135.000471,8.48 C135.912475,8.48 136.752467,8.61199868 137.520471,8.876 C138.288475,9.14000132 138.942468,9.50599766 139.482471,9.974 C140.022473,10.4420023 140.442469,11.0059967 140.742471,11.666 C141.042472,12.3260033 141.192471,13.051996 141.192471,13.844 C141.192471,15.1880067 140.802475,16.3279953 140.022471,17.264 C139.242467,18.2000047 138.144478,18.8239984 136.728471,19.136 L142.668471,25.796 Z M138.528471,13.808 C138.528471,12.7759948 138.186474,12.0140025 137.502471,11.522 C136.818467,11.0299975 135.936476,10.784 134.856471,10.784 L130.968471,10.784 L130.968471,17.12 L134.784471,17.12 C135.936477,17.12 136.848467,16.8440028 137.520471,16.292 C138.192474,15.7399972 138.528471,14.9120055 138.528471,13.808 Z M155.221883,10.784 L155.221883,26.48 L152.701883,26.48 L152.701883,10.784 L146.437883,10.784 L146.437883,8.48 L161.557883,8.48 L161.557883,10.784 L155.221883,10.784 Z"/>
</svg>
