<?xml version="1.0" encoding="UTF-8"?>
<svg width="48px" height="48px" viewBox="0 0 48 48" version="1.1" xmlns="http://www.w3.org/2000/svg" xmlns:xlink="http://www.w3.org/1999/xlink">
    <!-- Generator: Sketch 42 (36781) - http://www.bohemiancoding.com/sketch -->
    <title>ButtonRound-closeClear</title>
    <desc>Created with Sketch.</desc>
    <defs></defs>
    <g id="Buttons-and-tabs" stroke="none" stroke-width="1" fill="none" fill-rule="evenodd">
        <g id="ButtonRound-closeClear">
            <g id="Button/close/border">
                <rect id="Container" x="0" y="0" width="48" height="48" rx="4"></rect>
                <g id="Close" stroke-width="1" fill-rule="evenodd" transform="translate(10.000000, 10.000000)" fill="#8E8E93">
                    <g id="Clear" transform="translate(14.000000, 14.000000) rotate(45.000000) translate(-14.000000, -14.000000) translate(7.000000, 7.000000)">
                        <rect id="Rectangle-2" x="1.43884904e-13" y="6" width="14" height="2"></rect>
                        <rect id="Rectangle" x="6" y="1.42996726e-13" width="2" height="14"></rect>
                    </g>
                    <path d="M14,28 C6.2680135,28 0,21.7319865 0,14 C0,6.2680135 6.2680135,0 14,0 C21.7319865,0 28,6.2680135 28,14 C28,21.7319865 21.7319865,28 14,28 Z M14,26 C20.627417,26 26,20.627417 26,14 C26,7.372583 20.627417,2 14,2 C7.372583,2 2,7.372583 2,14 C2,20.627417 7.372583,26 14,26 Z" id="Combined-Shape"></path>
                </g>
            </g>
        </g>
    </g>
</svg>