<svg xmlns="http://www.w3.org/2000/svg" width="48" height="48" viewBox="0 0 48 48">
  <g fill="none" fill-rule="evenodd">
    <rect width="48" height="48" rx="4"/>
    <g fill="#C7C7CD" transform="translate(10 10)">
      <g transform="translate(7 7)">
        <rect width="14" height="2" y="6"/>
        <rect width="2" height="14" x="6"/>
      </g>
      <path d="M14,28 C6.2680135,28 0,21.7319865 0,14 C0,6.2680135 6.2680135,0 14,0 C21.7319865,0 28,6.2680135 28,14 C28,21.7319865 21.7319865,28 14,28 Z M14,26 C20.627417,26 26,20.627417 26,14 C26,7.372583 20.627417,2 14,2 C7.372583,2 2,7.372583 2,14 C2,20.627417 7.372583,26 14,26 Z"/>
    </g>
  </g>
</svg>
