<svg xmlns="http://www.w3.org/2000/svg" width="48" height="48" viewBox="0 0 48 48">
  <g fill="#8E8E93" fill-rule="evenodd" transform="translate(4 4)">
    <g transform="translate(12 12)">
      <rect width="16" height="2" y="7"/>
      <rect width="2" height="16" x="7"/>
    </g>
    <path d="M20,40 C8.954305,40 0,31.045695 0,20 C0,8.954305 8.954305,0 20,0 C31.045695,0 40,8.954305 40,20 C40,31.045695 31.045695,40 20,40 Z M20,38 C29.9411255,38 38,29.9411255 38,20 C38,10.0588745 29.9411255,2 20,2 C10.0588745,2 2,10.0588745 2,20 C2,29.9411255 10.0588745,38 20,38 Z"/>
  </g>
</svg>
