<?xml version="1.0" encoding="UTF-8"?>
<svg width="48px" height="48px" viewBox="0 0 48 48" version="1.1" xmlns="http://www.w3.org/2000/svg" xmlns:xlink="http://www.w3.org/1999/xlink">
    <!-- Generator: Sketch 42 (36781) - http://www.bohemiancoding.com/sketch -->
    <title>Button-PlusClear2</title>
    <desc>Created with Sketch.</desc>
    <defs></defs>
    <g id="Buttons-and-tabs" stroke="none" stroke-width="1" fill="none" fill-rule="evenodd">
        <g id="Button-PlusClear2" fill="#8E8E93">
            <g id="Close" transform="translate(4.000000, 4.000000)">
                <g id="Plus" transform="translate(12.000000, 12.000000)">
                    <rect id="Rectangle-2" x="0" y="7" width="16" height="2"></rect>
                    <rect id="Rectangle" x="7" y="0" width="2" height="16"></rect>
                </g>
                <path d="M20,40 C8.954305,40 0,31.045695 0,20 C0,8.954305 8.954305,0 20,0 C31.045695,0 40,8.954305 40,20 C40,31.045695 31.045695,40 20,40 Z M20,38 C29.9411255,38 38,29.9411255 38,20 C38,10.0588745 29.9411255,2 20,2 C10.0588745,2 2,10.0588745 2,20 C2,29.9411255 10.0588745,38 20,38 Z" id="Combined-Shape"></path>
            </g>
        </g>
    </g>
</svg>